<mxfile host="app.diagrams.net" modified="2023-02-23T17:38:38.247Z" agent="5.0 (Windows NT 10.0; Win64; x64) AppleWebKit/537.36 (KHTML, like Gecko) Chrome/110.0.0.0 Safari/537.36" etag="dVSBr02xIhaPD6dWOsg1" version="20.8.23" type="github">
  <diagram id="C5RBs43oDa-KdzZeNtuy" name="Page-1">
    <mxGraphModel dx="2927" dy="2251" grid="1" gridSize="10" guides="1" tooltips="1" connect="1" arrows="1" fold="1" page="1" pageScale="1" pageWidth="827" pageHeight="1169" math="0" shadow="0">
      <root>
        <mxCell id="WIyWlLk6GJQsqaUBKTNV-0" />
        <mxCell id="WIyWlLk6GJQsqaUBKTNV-1" parent="WIyWlLk6GJQsqaUBKTNV-0" />
        <mxCell id="yhk8o4lR-U0t_7d8vfAA-13" value="" style="shape=image;verticalLabelPosition=bottom;labelBackgroundColor=default;verticalAlign=top;aspect=fixed;imageAspect=0;image=data:image/png,iVBORw0KGgoAAAANSUhEUgAAAzYAAACBCAYAAAASaC8RAAAgAElEQVR4nO3dfVAc550n8K8UOO8MICGMQWJkhG10iJLlQ5Ox8CEoUCyrEmUnO1bJJs6kMKnM1unWmbrwkhdyipxTqCUX85IU5yqXC5dlV1iv7C2bmFtlz47LUNiOJc2NWCsKYi3bCDPIyAihFxjr0Mr3R/cM3T09Mz3vL3w/VamYmZ7up5+X1vN0/56nV+3es/9LEBERERERpbDViU4AERERERFRpDiwISIiIiKipKTT6bBq1SpN22YE+rKq6gF81bgdxXfeCb1eF5XEEaWjTz6ZwF13lSQ6GURERERpZ3HRjU+npjD6rx9gZORdfPml+kyaVWpzbDZuNOC73/k2vrhxA2NjY5iacmHR7Y55oik2Wpt/iM7u3yQ6GWmNeUxEREQUG6tXr0LJpk249957odP9FV5+5VV8/PEnvtspP9i40YCf/rgFZ8fH8fvXB/FvH57joIaIiIiIiBLi1q0v8fEnE3h98H/jzJm/4L/+Fxvuvvsun+18Bjbf/c638cabf8S/fnA6LgklIiIiIiLS4s9n/oKh4RE8un+fz9wb2cCmquoB3LhxA6f/fCauCSQiIiIiItLiL2Nj+OLGDdRUV8k+lw1sTF/djr+MjcU1YURERERERKH44PRpbK/4T7LPZAObOzfeiakpV1wTRUREREREFIrz5yexceNG2WeygY1er+NCAURERERElNRu3bqF998/LvuML+gkIiIiIqKU87Wv1cn+5sCGiIiIiIhSHgc2RERERESU8jiwISIiIiKilMeBDRERERERpTwObIiIiIiIKOUlZGCTf//X8Zh5O/JD+lUtmrs78ewzv0Tzg0E2ffAAfvNMJ57tPoCHwk8mEQWyaSceq9+J4qjuNA87zA/Dcn9eVPdKRERE6S8j2jt8qOmXeKRMp/rdhfda8eSLZhz4Xi2KVwNb1p7Ck7+Ldgoo6hp+hGerCoNsNIN3DjyFF+OSoPTkr+0sLV7D7KdjeOfYH/Hm+FwCUqZmO+xPPIxta4DK9cAPf/tudHb7yOOwPWgAUIo1J1mfiIiISLuoD2y8bt3E0pL8I+Hvq7hyHUD2NcxeiNnRKZqWbmLpxs3lvzMzkLla/PyW58ObWFL5KYVB2nZWZyBTn4MNZTvwSJkR1cePovf5U5hNaAIB4BquXL8JrAGuXJoJ4/eleOhvv4FdZQYsffBTPOkZwcxdxZVbBqy9PgdeHoiIiCgUsRvYXHTiiV+8rPLFMHp/PByzw1IMvNSDJ15a/rPhF52oXg9cOCnpkFL0KNpOflktLPW7saNIhw2V+9DgOo/uNxL95OYcXjz80wieqBiwrXwT8vWQD2Deeg4/eivixBEREdEKxMUDiJLc7Pgw+g7/A05cBAAdtlR/A1sSnSgiIiKiJBO7JzZ+1aK524wtejfOvvJzdHvuzt6xEzbbbtx7Zw70qwHcuonFz07j9y/04+3z/veWf78ZDZYd2HK7MDdh6boL77znjvlZkFQpbIcPYEcBsDg+iB/2SJ7IlVvx9/9tO/JvufD2k05saPOU/T/g0/seRt3mPCGsbXEOZ995Dd2vji3/Nsw6kZ7G0HfyPLZ/cxMyCzah+g7g7OcAUI5HfvDX2FlWCH0mhDy6PIF3B17GKyeFpzrFu6xo2LMFxevE+Tu33Lhw8lU8+fwpcd8G7Preo9i7rRBr9eIlYcmNj9/+OX515QB+80gp9Ivn8Mrv3ajetw0bbhPmU8Hz5O69VvHJnbRtByhfxZytDVWdeLZKrDsflC8fr/kZvCluk1/7MGx7jLhznU7Yn8p54kFJWl+aQWV9JYqzM4RtPz2O5zpew+kYlhARERElVnI8sbmjFs0/eRg7NuUAl2dwYXoGF64D+qLteOyJ76Pa3+/KH4W9oVYY1NxyY3Z6BldgwK5dJdDHM/0r3jm8c17oXOrvLJetRLelepOw+p1rAm9+vvx5/tcex0Obdbjy2Qyu3ACgz8OWPd9B8x5xNaxw60Q6e38OVwAAOqy5DwDK0fCLx/HQvYXIdIt5dHkJ+ttL8VDD43jkDgBV34e9fjuK1+mweEnYZnZRh7W5a8SdlqPhkB2PVRqwVp+BJTGvryxlQpctPXgOqv9mGzbcpi2pAct39iIuTM9hUZyf5TnmZ59fVd/XngM4+NhO3H27DpmLc2L6MoTz/J4dB6oUP/iKAd9s2In8G5dw4ZIbWJ0B/aadaPi7HdoST0RERCkpdk9s1u/As89IOxL+V8166Lu7sSUbmD3+HH72vOeO/Q7Yf/0otq3ZjGoz8M6g7+/2ftOIDZkALo/hpe7n8PbnAGDA3tYDsJQm4GHUCnb29TFMfnUnivUGbHsQePMtAChFXUkegJv4+NRrmEWtuLUO+TiNvidfwAnxqUPDLx5H9XodtlTtRv4bL2N7mHUirX2+JFugYUvDX6N6fQYWxwfR3jMsLiiQh8f++8+w604DtltK8cqNPKwFgIun0H6oX9zGgB33C09v8h/5OiqLMoBb13B6oBe9yrk7nqXV9YXIv3gaL/32Be/Tsga/CQ1Svr94AU8e8zzdAWbHnlqeq/VgpWJfD8L2zVLoAcV5evaZA+Ouh5H/3mvLCyrcpsOipN5U/+BJNNybg7Ul27ADJ3AiaEYTERFRKorjqmj+Vs3aiW0GsZNV+X08q+zXIAO6deq/27JeSP6k0zOoAQAXjp1yYU9pKZ/axNPnr8H5cSWKS3XYUL4DeOsEUFmLe24HcPVDvHNMvvnkqKfTCwBjePH/ulD5zU3IXJOH7WHXiTRXrkMmAOAmlq4DO0qEcC59mRl//4zZZ3N9tgFwfYElAJkF2/CTtsfx7vAfMfCeCydOCtvs+o8GZAK48pc/+A5qZK7h7L+8oDkEMHD5whtiFtSuzVh/G4BbLrzrHdSI+3xvAsZ9pdAbSrALwCuer26cx4nnl0Ma3/m3Gey/Nwf6jExhkEdERERpKQGroqkkYTUA3MSFP5/Gpwu+W8yeC/Q7NxYTvUAUAQCOvfchdpWWY23xNlTjBP7fVzdiLYArk6fxjmxLlTJbFJ5GCB33cOtEesu/v0AI67sxh0+PA2u+IXx+5ZNTGL/ou/2CywW8cRr/VPh9/M39hVi7aRv2NmzD3n0uvH30Bbx0cg46IcOxeDXIc4zFGZx9T2tKg5VvCDzBsl+4Ma/87o05XNkH6FdnQPb2n39fgqzK/HuoByUiIqJUlETxWhlY+vwP6Dsa6iglE/9B+WhGnxl6B4oi994wxr9ejh0FG7G9ajtQkgNgDuNvqXSavyL/M9+QIzxhuwUsvzEn3DqRhu6oRUOF8IRmceIDDEASCrbwIfqe9z8wefv5p/D28wZUW+pQXbkNd68zYNdjj2L25DPebfTZ2wGc8ruPkGkq3xD8lQ65ys/2iGF2N76A+uwcIiIiWkmSYPGAYXx6Sfiv4vsfxUN3SL7a9CDsB3xDbASnMXsVADJw9/1WbPN+Xo6Grxo4sEkIzyICOSiuqkbxGgCfjmFgTLmdDvdUPbpcZnfUouE+odO+9NmHeDvsOpGeiqsexk9/JMxHwfVz+OffCavOnb14DQCwtqwWDfdJfnDHdjz2d1bsArBjz4PYcQcAuPDOQD9+9cxpIZxLn4MNAE58Kgwa15bvhu3+vCilOFj5ymV+JcBx3/oQn90AsNqAnU21whMrAEA5GqqERUKWLk4onggSERHRSpQUT2xeGTyBe/92BzZkl+KR//FL7PrsKpZW65FfkIPMi/7uRM/hxZFzMD5SCn3Bdth/W4oLlxahv70Q+iU3lpDBwU0CeBcRKN0EAJg8J50X4XETWLcD9s5SXLi6BP3thVh7G4ClGRz/Z2H97/DqRJooMOLp3xqF/16dgUxPRb56Hm/+7hnv6nInXhlC9d1mbMkuRPWBX2HbxUtYvJWJtevzoP/iHF4BsHZrHR6x1MHy2VUhFCy3UBgcXLqIUwDOvv4uzpaZsWVNIXZ8/2e4d98MrrgBfe7tWBz9KZ50hXMCwctXuDFhBvRA/v1N+Ps73ViaexdP+gyC38LASSPs1YXCXKLOnb77HBxUqWNERES00iTBExsAH7yM3heHcfaSG0vQIb+oEBsKdFi64sKJ4Xf9/+6tZ/DcG+cwuwjgthxsWH87Mi+dwj+94fKzUAHF3OevwfmxGGx04zycqmFkS/jo//wBp2+swYYioYO6eOkc3nzxObzo6diGWyfSweoMZN4m/u8rN7F4eQan334Z7T/uxSsfSLb7fBjdva/hxLQwkF+7vhAbivKQuTiD0386jlMAPp26iCtfZAr5V1SI/Ew3rpw/hZd+84LwTpfPh9H9VD/eHJ/D4hKgXydsp4cbs2GPFjSUL+bw4qvvYvI6gNU65BflQX9LPUjt7O+ewv88egqTl91Adp6wT895dD6FFz9Q/RkRERGtMKt279n/peePp3t70Nn9m0Smh2KgtfmHcSzXPFh+8mPsvSsDV/78Mn70v6RPV/y8nDUNxDePk1X6li8REREln9bmH+IJe5P37+R4YkPp4z4zdtyVAeAaPjqZ5iFjRERERJQ0kmKODaW+h37wI+zK12NtQQ4yASyODeGZ44lOFRERERGtFBzYUHRkrkH+eh2w5MaFk/+C3ufTfB4MERERESUVDmwoKt7s+bmGt8kPo7t5OA6pocRg+RIREVHicI4NERERERGlPA5siIiIiIgo5XFgQ0REREREKY8DGyIiIiIiSnkc2BARERERUcrjwIaIiIiIiFIeBzZERERERJTyOLAhIiIiIqKUt2r3nv1fev54urcnkWkhSlmffDKBu+4qSXQyiIiIiFaMTz6ZQGf3b71/Zyg3eMLeFNcEUew93dvDco0x5jERERFRfCkfyjAUjYiIiIiIUh4HNkRERERElPI4sCEiIiIiopTHgQ0REREREaU8DmyIiIiIiCjlcWBDREREREQpjwMbIiIiIiJKeRzYEBERERFRyuPAhoiIiIiIUh4HNkRERERElPI4sCEiIiIiopTHgQ0REREREaW8pBjYmFs70NW6N7r7a2+EMWp7JEoSpka09xyCzZTohCxj+40Rix1dPR3o6ulAsyWUH+5Fc8i/ocgIed5uqwj5l8r6brQdQlePHeboJpAQ/WsVESWfjEQngFKEqRHt1jLMDbeheyDRiUk/5tYO1BkCbTGNoaZeDMYrQZRYFju6atdhrL8NfY5EJ2ZlM9oOwboVGOs/zLKgONmL5p4a5J05ioN9o4lOTHAWO7pqi+Bi/4CSAAc2FHPm1g7UYQQtnccSnZSkNdjZJhm0pNg/aitcLOq3ubQIWBiHM0hH2mg7BGvJJPoPHoEzakcnL1Mj9nFQQ2ku4uvIQC9aYEdXrR3mAd6Ao8TiwIa0cRzBQf7DTkQriLmuDDrXCAc1FGfH0N2UYjcCB0YwZqpHpa0Cg7whRwmUFHNsiIiIkstebDYArnMp1sEkSohROCfc0JVUcH4kJVRUn9iYWztQlzsuf5wpzs2AIqxGNXxD3FYn/ulWC8URYzmXuTWGCQjhPcvTGDhnISTKOTamRrRbizHRfxgzddL5IZJ8lZVVDbp6asB8jx75vBy1fA2tzqdb+10Or7iIuiC/FeZR6CSfKNLlre+vA5Z6lGcB7kuXobt9nbiB1vpdAVu78HsvlyQfZXlYBmtPB6wL474hImrbqeSl/LzU81o5vytonLxKXkjPQ8sxtdQDbx0bKghar5Tlt7yNmN/zKqGCweYNWu6BAdMYUvnON89GVHag7Ty1CKt+inng81u1+hREwDrinQ+mOC+//2b4pnF5P8HySnkd0FBf1QS8VgnHwHAbPiwVz9s1jrHcssD1aGoaho0q+SCrg/Dueyg/UDtRC0f2PXfZtSMAv+Wn5ToSQh12jk5i39ZiGE0IGkZLFCtRHdgMnptGXa2iUm/MERpNSQWMGBUvpuKdsGFJgzTUoMsyjv6mNmEbix1dtfVotox6L1pC43TLJtQabYdgtXageWOAi5ukc9YiXiTMrR2o67ED7GRHQIdyawfWDLehpRPwXMDr2hvhOngEzoFetAxwjk30Bcl3IKw6n57ttxj7enJwvKkN3ZDkley3e1FXMon+puXOnrm1A3VWO8wO+f5LLN/CxEAbWtQ64MHqt6cT4RpBy0HPtkJnpau9QOhsiiGfqoNMKXG7QLHxhtoO7DtzFC1NkjyTnZPY4cL48rlb7Oiq7UAzgnUWdSi3fgtj/WJeWOzoqq1Be7sJunkHWsQwGrV8DKkeaK5X0xhqOiwcw9SIdms92m3Awb5ROCe+hfKt98AMyMrSXFcG3cK46sAFAIz56wCXQ1G/VPJM0uF0S/cfbn33EX79FAY1l5fzBhWwtYayclskdUSd3zYUNK+WO/stksFQc6gJ0FCnACDPdAibHZ5rrJCegPWoS7iBUlJRATgkA29TBUqyAJfjGABhRbbgbdOX0WYChtvQ4kmjqRHt1hq026YDzMUMVn6BryOeQbF08Gi02f0/kXFcxJy1DGs2AuDAhhIkuqFoAx/BBZ3QsEXm0iK4XdNwZ+Us32kQ74R9KLsoTmNI2qgGRjC2ABhKxaUZTY2oNPjeKXD2HcaQCzCY/C8P67nwvCpp/IOdI3ChCJVhLM9Jy9xnjkr+MRhFn2MayBI6xxQ7wfI9rDqfju03C5jol3YWRtF3UPnbY+hW/IM+ODQON9ahUFaPdcDE62HPt/DM15APgI6hu38c7qwy1EV7eWbXiKzDI5xTETZ7jmOpQXmWG2MD0nLrDVoeHu4zkrwQy1uXdRlDkvPzOWbI9UBLvQJcw5IydhzBq2fc0G2tgRmAs8+hUleEwbl7YtTvkwtDrs73Q0sNyrMUafKUoXS7COq7r/DrpyFXB7g+ktf/zhCe1kRYR3yptCGteWUqQB7cmBiVdOIHesMYXAWpU56Uzjtk+w5ej47hQxd8QrGMFcW+A+hgbVOFs++w/FwdR3DcBehyi/z+JqLyMzVin2JQI6SjN8A1cBpXF4C8fParKHGiPMdGbNjehrYXmw1uTAx9hDlJozXmrwMWrsEl/ans4gsAo5iZB5BbACM8F4dJ1cebg+cCdabFu8sO5cVcaIABLwoUhOIfGQCYugY3dMIdG4qRYPkebp1Pw/arekw/v5W8N6bLWgadSj2emw13UmyA+RqOUUyodKwi5XMsx0XMYbnTYS4tAlwOn06Ka94NSAeyqpR1UCxvZb1QCLkeaKpXvk9dnLOXAW/HX6XDKQ7OjweZ5Oyen5b9LeSZMk3w5m3Y56lFGPXTNe8GDDVhvV8HiLSOqFOmUXNeOS5iDjqUWyN8x0+QOuWhLHst9WhwSHmTogLGEp3PADpY2/SvArb2Dm89qDP4plsqkvIzVhRD53MDKxgxL4kSKOqrognhLOLjWss9MCxMYshxDIa6GtSV7gUwrdrQg1G9e6aFqQB5AHS1HeiqVfmejZDSTQR1fkW2X2+c+TSGmtok4Uxlig3duDoV7jGE85gLumG8VKAwF0CWZ26Q0uWYHDXsehBof1meuQFKy89QlGGWQodvJMQwZDHPNNS5qJ5nBPXT2XcYTjHUqqunPsT5NbGoI75p1J5Xx9DdNC2GknagDmHOr9FI7SZG0HrkGMWEpQzlpXsBHFt+YqK8ERUGzzwZtzIkN9ffLyIrP0OuDliYDHijgigZRX+556lrcKMMmy1iGMvEUTgBOM9No85UAKOpACVZKnecg3DNuwG/DTgAMeYTfHEUrRSR1PkV1H6FO7IVsFnUQsSizHMeSWMUM/N+JtXHUNj1IOD+NLx/Q1yKVpj/UOQ7R8wP4amep66LeaY5XRo2DCoK9VOc6+iZo2LtscOgaW6pxjoydQ1urPP/fRCh5dUo+g4K5WG0HYK1tgPt+XF831fQeiSf0wVx4BPxcuEWuzgHKZSFJyJr4+HVYe2Df6JYif5yz2JYRV5+oxDG4ukATV2DO6sYxoocv4+dA3HOXvb7+F54mZ2/fQphJ9EO8yBKXhHU+XRrv2rHFCfzBgorE8IwoinAeXgmF8d5WWEhTOmeyMJ6QhR+PQh9f3LLS9GabSYYAiwa4OGad6t/ppZnlntkYT3RPk+l8OqnZy6Qcm6Of9rriG9YnNY0hptXnjk48Q0nD16PPHNxNltivVy4sP9AImnj2tuWr/BDdokiF4P32HgafjHypBckxygmFnQoKVkXchgLAHHCmw7l1kOwSRqa0XZIuJMx4O+OnTixWiXO2NwaYawuaZKIDtTKFkmdT7f2q0O5RTpJdi+ardLVsMSYcGn9FCfNaqWtfo+ib2AcbkMNulqlgxsxPa6RsJ5IRdL58HTA6toVk4gtdjRHeyEDj7Drgb/9jWBsQWXehakRzYr64hydhDurGJUaQymds5d9ylU9z/aiuVbRuY7aeUZWP5VtRBhsXMaMA/DM1wg0/0ZTHfHMEau1h9eGtOaVT5mKE/fFuTDm1g5F24qN4PVImItjqK3RNIDWRJxDKVvYpbUm6BwnrW1c9Trit1zswt/inC/ZtcJUgZKsCEJ2iaIg+qFo8KxlXgackTZ6zyNaHVxhjuYHO9vgEpeA7PIGVGt4L8pAL1qmhCVAu3rqvR+7zxzFwbBSQqFw9jlQ11MjxkXzPTZxEUGdT6v2uzCOfkeOfA6GIqxnsPMoCiVx+1gYR3//OPZpDB3TXL8dR3DQIS7vLIl5l8bMh0wMjSm3dqDLGmqoyvKcBVn+LIyjP4YXxrDrgSohNElY/lssP+/+FHnqOILjdeKywlpCKQc+gqu2Rlg0w9s5PYbuJoghXZ48m8ZQ0wjQU4O8GJxnZPWzSCVfxOOLndDAYaVa6sgo+g4WodnbBkJNo/a8ytuqcg3oG4XqEvSxoqEeDZ6bRp2hKLybQH6OeXCjZK4UhPlFQwg0xwbQ3Mb9XEdUy2VhHP19AFQWCAq0EARRvKzavWf/l54/nu7twRP2pkSmh2KA5Rp7zOPkE+gdL7QyhfpOrbR+B5fFji7TtfRoH6ZGtFtzcDxON83Sul6ETXhnTslEHOc8EcG3/xWDUDQiIqIk43nnTQhzHgaHxuE2mGShOOnCXFqksox6ajJWFANnQl3lLkxh1KMVQXzHU7Al1IlijQMbIiJKe943xIcy58FxBK+egc88g3Qw2Jk+K4U6+w7H7SlBWPUo3Vns6Kotkr8olyhBYjLHhoiIKBl43v8R2jtcljn7DqfFUw2KTKT1KK15lxQnSjwObIgoLbFDSoDwZIJ3kSlSrEdEqYGhaERERERElPI4sCEiIiIiopTHgQ0REREREaU8DmyIiIiIiCjlcWBDREREREQpjwMbIiIiIiJKeRzYEBERERFRyuPAhoiIiIiIUt6q3Xv2f+n54+nenkSmhYiIiIiISLMn7E3e/84I9CWlh6d7e1iuMcY8JiIiIoov5UMZhqIREREREVHK48CGiIiIiIhSHgc2RERERESU8jiwISIiIiKilMeBDRERERERpTwObIiIiIiIKOVxYENERERERCmPAxsiIiIiIkp5HNgQEREREVHK48CGiIiIiIhSHgc2RERERESU8jiwISIiIiKilMeBDVEqMTWivecQbKZEJ4SIiIgouWQkOgFxZWpEu7UMc8Nt6B5IdGJSDPMupsytHagzBNpiGkNNvRiMV4KSUZzroFAmzHdKH+bWDtTljqP/4BE4E52YSFns6Kotgov/JhGRxMoa2FBCmFs7UIcRtHQeS3RSktZgZ5uk87wXzT01yDtzFAf7RhOYqhXMYk/ooIZtJvaMtkOwlkymRyc/BUWc/wO9aIEdXbV2mAd484GIBCtrYOM4goOORCciRTHvKNHiVgcrYDMVwX3mKDtLlFbkN1DSwMAIxkz1qLRVYJA3gYgInGNDRCRnqkBJlhsTo+woESW3UTgn3NCVVMCY6KQQUVKI+hOb5cfLF1HXU4PlaQPqYR3KuQXyeFkhJAfDbRjKPwTrVp34uRtj/YfR57l7a2pEu7UYE/2HMVMn3Z/imH5i9I026b4Bt08IkJAO6RSIFRfXq8w7LXkuxkALatDVUwPOFYkeedtRy1dlvQ2e92y/gLGiGLqFSThVng4pj6VMY8T5EaTN+Bx/IfT5EgHTaLGjq3advHyAAO3/dcBSj/IsRb7LzkNxjsEE+W2w8vaG8Q0VoN1aBp1yO/FchM/LYO3pgNVvGQChXbP8lbFavYQiLfApT7/t0SUPUwx6ztLtfObYBL9OhFPv/NazYPkPhFR/nKOT2Le1GEYTVNssEa0sMQpFK8a+nhwcb2pDNwCgArb2etT12AHvBVP4rBzj6G8SL5AWO7pqO9AMeafDUNuBfWeOoqVJuECbWztQZ7XD7JBefHUot3ZgzXAbWjolx2xvhCvABXh5gvBhYV+mRrRb69Fug/gPwvJ8hxbJP9rN0cusFBYkzwd60TLA+QLRp6Gui50HSOqtubVD0Qb9Wdnt15Crg3ti1OeYwrHcGOtv83awzK128dso5UeANiN0Li8vnysqYGutCHAmStrTqFWJ5VuYGGhDi6RDqZZPRtshWK0daN4Y+DieDrR0sGW02b1344OXt8hQgy7LOPqb2iTnWY9myyi6B4SQRtU5Ht6BnVoZa5dnOoR9E697y9hzfFk6fSa/C+VjbW8EpGnKKoO1JwdDnvZoakS7tQbttukQztlPQjVcJ0Kvd8HqWYD8R/A64MNxEXPWMqzZCIADG6IVLzahaFnARL+00zKKvoMjcKEIlTbxgmipQXmWG2MDkovaQC+GXIDB1Ci/iLlGZBfwwaFxuFGEzRb5Yd1njkou4KPoc0wDWcKdHFWmRlQaANewJK2OI3j1jBu6rTUwA4CpAHlQhKUM9K6spzUBhJznFBXB8t1cVwbdwjhelbabTkUb9GdFt98KFOaqfGyxi511+V3jwU7P08no54eSIVcHuD6Sl0tnCE9rQkmjJjpg4nWfJzuVKvnk7Dsc/DimRuxTdGiF3/YK+9JS3l7TGJJ2mAdGMBrKsRcAAAa9SURBVLYAGEr3BjwjY/46QPG0zlvGIdDNO+SDjoFe9MvSKczjgmtEXucHxuHOKkOdrC64MdYvP+fjLqiEX4V+zlquEyHXu0jqWbA6oGoaVxeAvPxQBvlElK5iM7BRDeMQLj66XOHxsrm0CHA5fC5Wrnk3kJUjDxs5p7jT77iIOSgvZCox8VPX4IZOuJOjQgg5GceQopPjnL0MYB0KTZ5j6VButSv+4aRw8pyiIVi+78VmA+ByKDsf8jboF9sv5mblaTGXFvnJF8n3Uc0PX655N2CoQXuwgakfoaRRK2U+BQrjGzwXeKBqrCiGDtP4MGCIYJDy9pB1xAFgFDPzAHILAnasnbOXhSckrYEHQMH4lLEyneI8rrEhDXVBJT9Vyyzkc9Z2nQi13kVSz4LVAXXieRIRIWGrool3RbM8MeRKl+OSCkOuTnzM3wGrz7du8f+PobtpWgzF6UAdVuD8GkotpgLkAdDVdqCrVuX7iDsBK639iuc7f9HPXer45Iez7zCcYnhRV099iPNrYpFGN65OyT8x5OrUN9XAkKsDFibhCvR90PKO0EAvWqaEUK+YzgncmAOdGH7Z5Xsy0TqbwDReJ0Krd5HVs2B1gIgomLgPbNzz0xDusNSjfD6x8y5c824gV8s6+qPoOyjcmTTaDsFa24H2fL5jhJKUGHOOGAzAV0r7Fe6Yj3p/PzNfj/IA+49bfohzcDxzh6w9dhg0dbw1pnHqGtxYF3byhDKJzW+1l3eEvMuKe+aWHUKh1oUPgrqMGQcAXIMbbkxEbb9hCOU6obneRdYWwqs/nhsPIR+OiNJQjObYqIQbmCpQkrUcuiA83r4noeFdQthBaPNBPLHiQcN5iBJGCCUJNp/ArxXdftXDWoKdb/zz4xi6+8fhVoZgBaA9jb7hf0KIUHCByiRYOF+w8gynvCPjmVsWemitWtsTzv+a8DRCDJEsqUjkvJBwrhPB610kbSGSMlaGRRLRyhSj99joUG6RThLci2ZrmSw+2tnngAtFqGtXTCa02NEcZBJt1AyMYGxBJf7e1IhmTzyx9L8BeOKShTvXpEUydIJXFnHivUpcvLlVy1yTld1+XfO+78Vw9r2OsYUi1PXIj+XJz2jnh1qbUZadMNjwPAGogK29I+A8CE1pdIxiYgEw1EqOJU7o1mSgF0MuHcqth2CTdE6NtkPC4gsDAZ62+P2tXfhbS3mHQK0T7T2Wh+UeGCQhd+bWDnRpmX9jqJGVu3D+0vksxzB0xg3d1npF/aiArTWchRzCoe06Ebje+dLaFlQHMcHqgMWOrp4OeZ6J85WUYZFEtDLFJhRtYRz9jhx5LLRL+Wh6OfZdtt3COPoPxiRVKoQQFWF5SyH+XjCNoabluz95W8XYYpHq+wjIL2efA3U9NWIe8z02ceGdK6BSd4P9doW3X/X3Yvg5lmsELQCinR9qbQYoUjlPsS1peqmoljSOou9gEZq9xxa/7x/HPmuZprQPdrbBJS7vvDx/RFu7V/3twjj6+zxpC17emolvrRfmuQgruTmxTjHvRbrCmzjZfjh4iJVr+CiumqRzV+TLXwPSuSvyOS6u4bbYhtpJabpOBKh3qjS2BZX873MEqQMqT84CLVhBRCvPqt179n/p+ePp3h48YW+KaIf+1qanxIlGuVJg6ZLHbL+AZ25FyUQK3cCw2NFlurbCyy3GTI1ot+bgeMBO/fILOrnATDykYFsloqhS9r9iFIpGRJSqhBAd33ejJC9zaZHKsr0UTcaKYuDMCJ82JxNLDcqzpnGcgxoiEiVouWcioiQ20IuhUvkb2JPZYGdbopOQ9px9hzlwTCYWO7pqi+Aabkv69klE8cOBDRGRisFOdpiIkpZ3CWoiomVRH9jwrhZR6mL7JYrEMXQ3Je7dTkREKx3n2BARERERUcrjwIaIiIiIiFKebGCzsLCI7OzsRKWFiIiIiIgoqOzsbCwsLMo+kw1szk9OorT07rgmioiIiIiIKBSlpXfj/OSk7DPZwMbpHEXVA5VxTRQREREREVEoqh6ohNMpf4+VbGDzp/ePIys7G9U7q+KaMCIiIiIiIi2qd1YhKzsbf3r/uOxzn8UDXvrHl/Ht+v0c3BARERERUVKp3lmFb9fvx0v/+LLPdz7vsZmacuFXv+7CY99+FPdt24r33j+Oc+c+xvXr1+OSWCIiIiIiIo/s7GyUlt6NqgcqkZWdjV/9ugtTUy6f7Vbt3rP/S387+c8PVMJorMCm4mJkZeljmmAiIiIiIiKlhYVFnJ+chNM56hN+JhVwYENERERERJQK+IJOIiIiIiJKef8fuZBu31Eql40AAAAASUVORK5CYII=;" vertex="1" parent="WIyWlLk6GJQsqaUBKTNV-1">
          <mxGeometry y="60" width="764.65" height="120" as="geometry" />
        </mxCell>
        <mxCell id="yhk8o4lR-U0t_7d8vfAA-14" value="" style="shape=image;verticalLabelPosition=bottom;labelBackgroundColor=default;verticalAlign=top;aspect=fixed;imageAspect=0;image=data:image/png,iVBORw0KGgoAAAANSUhEUgAAAzIAAACmCAYAAAABKrrlAAAgAElEQVR4nO3dfVAc953n8bcVcc6AHjGWLEZGxMKFKFlexI6lrCQOHD/UrbJ4icqK4mVLYcvslmp9VIWHZEOOw4lChdyah6Qo17pSuCK7wnplbTnE3Cp3dnyGw3YiZxZxVljEWo6xpMGWIiNZMoxVeOX7o3uGnpmeB2BgGPi8qlzWDN09v374/X797d9D33T/gw9/hoiIiIiIyALgcDj45JNP+OyzyGHK8uAvdu/6E/64IJ/bs24n1eGYswSKiEiod98d4QtfyE50MkRERBLK6/Vy7tx5Tv6/t+jre902qLnJ1yKzcaOTv/yLr3H9+nX+bWiI8+c9THi9855oEZmd2upv0Nz6o0QnQ2ZI509ERASWLVvGpk1Z3H3XXXze8XmOHXuBd37/buAyYAQx3/5WDUOnT9P1Yjf//vYZBTEiIiIiIpIQN27c4N13R/hF9//kd6cGOXTor9l8xxcCllkG8Jd/8TVe/tUrvHXqdwlJqIiIiIiIiJ3BoSF6e/8v+/fv46abbvJ/v2z3rj/h+vXrCmJERERERGRBGvy3IT7xfsJ/Ltzt/27ZHxfk829DQwlMloiIiIiISGSnfvc7/uiP7vZ/XnZ71u2cP+9JYJJEREREREQiG3nvLLffvtH/eVmqw6GB/SIiIiIisqDduHGD3/z6hP/zsgSmRUREREREJGZf+lKx/98KZEREREREJOkokBERERERkaSjQEZERERERJKOAhkREREREUk6CmRERERERCTpzFsgk3HPf+GRku1kTGutIqpbm/nJU9+n+r4oi953iB891cxPWg/xwMyTKSIi823Tbh45sJusuG40nR0lX6H0nvS4blVERBaO5fHYyANV32d/rsP2b++/Ucvjz5Zw6K+KyFoGW1af5PGfxeNXRWRO3HeIH+3PITXiQl5OH/vvtL4yT2mSaQlXJk9OXOPSuSFeO/4rXh4eS0DK7Gyn8rGvsG0V7LwNvvHj1+Oz2f1fp+I+J5DDqt8+wbPx2aqIiCwgcQlk/G58yuRk4FfG56t89DGw4hqX3o/rL4pIvN2YZOL6p6T4PqcsJ2UZQfnby+SNhKROpsN6zpYtJyV1JRtyd7A/t4A9J47S/tOTXEpoAgGu8dHHn8Iq+OjDCzNYP4cH/vpPuTfXyeRb3+ZxX8QydpWPbjhZ/fEYqnZERBan+AYyF/t57LvP2/yhl/Zv9cb1p0Rkjrz6NN95deqj7+n+xNu/5BttysdJJahMzsgtovTA/ezIdLBh5z4Oet6j9aVEt8yc4dnD355Fi4mTbXmbyEglMGB55Wm+qRZDEZFFTYP9RUSWiEvDvXQc/kfevAjgYMueP2VLohMlIiIyQ/FtkQmriOrWErakBvWrv3U3FRX3c9ftK0k1u65MfHCKXzzTyavvhd9axj0lHCzdwZZbjD7gkx97eO0N75zvhYgYtjz6HarvSYeJMxyrfoqX/X/JoeLwIXasg7Ov/oDGmx/lJ7vWwwdv8p1XU6gs2c6GFUzl9X/o5NU/TG13275HeXjXnWxYYRRNkxNjvPPrX/LssYXQBWqxGKLjt++x/cubSFm3iT23wuk/AOSx/7/+Gbtz15OagnGOLo/wetfzHPut0WqTdW8ZBx/cQtZac/zNDS/v//YFHv/pSePzrdvZf+D+qW0ATI7R/7Mf8NQKc+zVxBmO/cLLnn3b2HDzBV479AR8t5k9t/nGVEJgnfGPnLv7KxTfmW50cZwY4/RrP6f1hSE4+E3j+jJt2NXMT3bBxHA333grb+r3LNdoRtFXqHiwgNvXOvxdJoP30z9ObOIMx567wM4DO8lasdxY9twJnm76Oafm8AyJiEhsEtcic2sR1X/3FXZsWgmXL/D+6AXe/xhSM7fzyGOPsifcenlfpfJgkRHE3PByafQCH+Hk3nuzowxOFpF4Of3Ge0Zgkepkm3VGwbzd3LEOuOHhnf9j6bJ0cw7Vj2wnY/IC73/ohWXLSc3czsOPfZVt5iLbDn6TQw/mseFmr1EejI4x+fl0ttx3gEP7NfNUXP1mjI8AcLDqboA8Dn736zxw13pSvGZ5fHmS1FtyeODg19l/K7DrUSoPbCdrrYOJD41lLk04WL1mlbHNW4uo/mYZD9xlBDHGMmNMkELqCuuPr2TPn29jw82xJTXjS1/ngTsdfPTBBT66DqSms+XBv6D6wXS4dNH4DXO81qRZl3zwh6v223rwEPWP7OaOWxykTIzx/ugFPppcbuznX1VyaFfQCp9z8uWDu8m4/uHUdbtpNwf/dkdsiRcRkTkV3xaZ23bwk6esBbzxtM2u7/MDf3k/W1bApRNP852fDpnf7qDy77/KtlV3sqcEXusOXW/vlwvYkAJcHuK51qfNp7lO9tYeojRnnhqYRJa6oV9y6tx27r3dQdbdRfCKMXZmyx4nGcDk79/iOUtLC2tXMfFSG995wQOYN5T7cki9bRsP3Pc8p0a/ysNfXE/KxBmONT3Fy+a6GQeq+MG9TrLyS9hy7BlOz+9eLl5/mMQ6L8uWg3/GntuWMzHcTWNbr9n6lc4j/+073Hu7k+2lORy7ns5qgIsnaWzoNJdxsuMeo3Vmz/5itqwCrnt49ek2nnsr6Dd9AW/qejIunuK5Hz/jb3k/GDahDjI4Rcfjz/Cm2Wp08LtfZ89tDrbsup+M7z7D48d9rTdwaeiJqcH+9+0MSUDFl43Z+AL307fNlRTc+xUy3vj5VOvfzQ4mLHXUnv/6OAfvWsnq7G3s4E3ejHKYRURkbs3xrGWfMmm74G62OY3KL2Pno/wkuL5hOY619uttuc1I8tn+py1dUjwcP+nhwZxoU8aKSHyM8dzJ99hz+yZSN+Swh15eYzsP3JkOXOP0G0GjrK++zUtmEANw6aVfcbooh4JbHKx2Ahs2sWEZkJrD/u83sz/45xwObgcFMvGS5zBnpfuUyY9hR7bRPSs1t4QfPFUSsnjqCid4PmESSFm3jb+r+zqv9/6Krjc8vPlbgO1sz14JwNk3ngkNYgJc4/T/eiZi92GrswO+IAZgiGf/1cPOL28iZVU628HSrTGKe+/ktpuBGx5e9wcx5jbfGKFgXw6pzmzuBY75/nT9Pd70P2iD1/79Ag/ftZLU5SlGUCciIgk1T7OW2fzsMoBPef93pzg3HrrEpTOR1vMykeiJdkSWuuMnOF28iW2rNrJ9F7z2HwVkrQKunufkG0HLTlwLenp9hgnrUw5fJ9er7/HmkE3m/uQ85+KY9KUu4551xsuJr49x7gSs+lPj+4/ePcnwxdDlxz0eeOkU/7z+Uf78nvWs3rSNvQe3sXefh1ePPsNzv11FynIALxOXohTOExc4HXx9hGVT1k8YrUkpdotH4rvGPvFyJfhvL43x0T5IXbacgLfv/MckAdXTf0z3R0VEZC4luC/Wcib/8Es6jk43KknhPwU3vaSmTL9iE5FZeJOXh+9n2z3pZBXsYMeNjazGmBnrteBFl6WQAZan4EVkmEMruIFltN4Ep3/aGbq+xM+tRRzMN1pgJkbeogtL167xt+n4afgOU6/+9Ale/amTPaXF7Nm5jTvWOrn3ka9y6be+VgsHqfEezvS5wI8ZzpVGy/sN+HQm2/u8gzXB3z1odpu7/gn2o2tERGQhStBg/17OfWj8K+uer/LArZY/bbqPykOhXRsMp7h0FWA5d9xT5h8kDHkc/GOnAhmReeYb9L86aydfyl4JNzycetGmOXXdFg4+OHWHu+3gDjanAoxx7l+BYXPw+ao7eeBgnmXFdHY88igV987lXiwdWbu+wre/aYwn4eMz/MvPjLFNpy9eA2B1bhEH77ascOt2HvnbMu4Fdjx4HztuBfDwWlcnP3zqlDnhw0o20MvpUSOsyNp5iL2b4pViB5t3TU0Iwa1FHLzbCMImP3ibV4OWTvlchCjqlbf54DqwzMnuqiKjRQqAPA7uMiaLmbw4oiBaRCSJJKxF5lj3m9z11zvYsCKH/d/7Pvd+cJXJZalkrFtJysVwTwTHeLbvDAX7c0hdt53KH+fw/ocTpN6yntRJL5MsVzAjMp/8g/43cQfAuRH/QP0A11PYXPotntj1IRMpq9hgTp0+MfQ6HUMAP+elXdnsz3WwYdejPJl3gUteSFm1nowVXk4fs9mmRLeugCd/XGD8e9lyUnwF5NX3ePlnU5MqvHmshz13lLBlxXr2HPoh2y5+yMSNFFbflk7qJ2c4BqzeWsz+0mJKP7hqdO1as94IBj68yEng1Ev97NxklOmlf/dDHrz8IR9dT2H1rSmc7foerTPagU9h7Q4qm3N4/+okqbesZ/XNwOQFTvyLbxzWKS5dLYFUyLinih/c7mVy7HUeHwre1it0/baAyj3rjbFAzbtDt9ndrWm+RUSSSOKmX37redqf7eX0h14mcZCRuZ4N6xxMfuThzd7Xw6/3ylM8/dIZLk0AN69kw223kPLhSf75JU+YiQVEZO4Yg/6NvPcpvz/5c/sbwcuneKbvAinr1htBzKSX90/8nNYf9/q383LbUzx34gITk5Cydj0bMteTcbOX93/3Jq9FHDwuYS1bTsrN5n+f+5SJyxc49erzNH6rnWPWY/qHXlrbf86bo8YDodW3rWdDZjopExc49esTnATOnb/IR5+kGGV15noyUrx89N5JnvvRM8Y7Vd56nsebp7aReou5jetXufTxTHdgknf+9y85dX0VGzKNgGPiwzO8/OzTPOsPVMZ49oXXOfsxsMxBRmY6qTfsO52d/tkT/I+jJzl72Qsr0o1t+vaj+Qme1XUmIpJUbhoePvdZc+uPEp0OEYmT2upvMJ95OqOkku99eRMpV4d49ltPB3bN8b2w8IM3+ZuYJgKR+T5/C1OYlyiLiMiSV1v9DR6rrAIS2SIjIotAHg9/cRMpwEe/79f4AhEREZk3eoOkiEzffY/yvS+lk7rCHF/w8RleeupkolMlIiIiS4gCGRGZgRRW37Ke1BufMjF6il/8Q2fIDFIiIiIic0mBjIhM3ytP8Y1Yxi08+wR/8+ycp0YWnV5aq3ujLyYiIkuaxsiIiIiIiEjSUSAjIiIiIiJJR4GMiIiIiIgkHQUyIiIiIiKSdBTIiIiIiIhI0lEgIyIiIiIiSUeBjIiIiIiIJB0FMiIiIiIiknRuGh4+91miEyEiIoZ33x3hC1/ITnQyREREFqR33x2hufXHACwHeKyyKqEJEpH4ebK9TXk6ien8iYiIhPdke5v/3+paJiIiIiIiSUeBjIiIiIiIJB0FMiIiIiIiknQUyIiIiIiISNJRICMiIiIiIklHgYyIiIiIiCQdBTIiIiIiIpJ0FMiIiIiIiEjSUSAjIiIiIiJJR4GMiIiIiIgkHQUyIiIiIiKSdBTIiIiIiIhI0lEgIyKyBBVUNNDSWE5BohOySJTUNtHS1kRLWyUl01nRVU5jWwMVrrlKWeIVVDRM/7iIiMRgeaITICKLX0FFA2VbL9NT1U53ohOzyJXUNlHsjLTEKD1V7XjmK0FLQEltE8VrhumsOkJ/ohMjIrKEKJARkRnYS3VbIfTW0dqV6LSIVXdznSVYNM5T+uBR6jsGApZTS0y87OVOJ3gHB6IGMSW1TRTTR03z8XlJ2eKnckhkqVMgIyJzrr/jsJ5Ui4iISFxpjIyIiIiIiCSduLTIFFQ0UJZ9ls76ixS3FeLvnu0JbkLPp6LxAHlplq/Gh+msn+pX7G96P7OZlqJM81svQ52H6XAbzcjhtw++puapLuKj6pcvMhOllZY8CL68hHUMRlETLUX482Jo/jXHYwSPkXGV01iWxUjnYS4UW8d02OVXmzzdC8VFa81yYa4OwFIxN+Vq7PVC8LZDl5l1veAqp7EsF4fvc1C9E15o2ryWbnrG2C9zq1sP0NJ2IODvfgF5qZCWtkLsjmHg+Cb7Yxw8BsoTpVtV2PMQsv2pblpv55i/YT2WIeWB1z7/2RzrnhHrAuZ9wJXQ8+QfaxRwbmzuGzx99FAYthwSkaUjfl3L0nIpa1tJT1UdrWAWZoU0VoxOFeqlhWSPHKXGX8gbBWdZ7V76rYWPs5AW+qipasdfiJU20FgGI511tLrDbN8sQBmc+o2S2iaK2ypBwYxI7EoraSlay1Bnnf9GpaS2EvCNwYjQN32Ni8Yct5l/DfbjMRzklTWxqreOmmbw5fXixnI8vhsZmzw9dUPljeMOL1GxlNuzKVdj2H5BhQt666jxXUd2aYCZ1wvm9TJ1w2+sW9ZYDpGCGXM9r/Xac5XTWHaAltpMapqPm10mw49D8utqp6Yr0hiZGPKCb5+xTCpQWklLURPVRBsjksW+tpWc8J0H3/ZtzmG6q4E73b50GIzgyRtQHhRUNFBW1kT1Rstvhxxra7B3OVICwzADyXHrRAp7qa6NoRwSkSUhjl3LvAx1WgpE9xFOeMCRnT91E9PVHlTQH6dn0Atr1gXd6IzS4y/oB+hwj0KaAwZfnHr6Y7P9kuJcHOPDvGD5je7mPjxksrMiP367KrLIFWSshfGz9FuetnY3x/gwIO0yJ2J8KuodPGq5AfHl9SwKzKloS4pzcXj6AsuNrnY6BxXExEf0cnt25Wr07fd3HA68CfUtsyYzcFMzqhfyqXBlgqcv8DrrGsablktxabh0G+uFtK64j1DfOwpOV9ynS46WFygtJC/Ny1CXJfjqaqfHA05XlGm002DEeh4YoKPe/hw6rrgDz4ernJ3O0NaX/o7DQb89dcys6/uWm4mSWjOICQg4j9OqVhcRMcUvkAm66QHwXPFC2kqCZwKdmm+/yXhSE7yM553AG6bz1/ACY5fCPO0CfDPHeNzBT9hGuTpuVymKSDj9ly4bT9Nr905/5fFrMU7t62VkIChPn7+GFwerNoJ/Nqgro/bpk9mLWm7PslyNuV7Ip6Jxql4odhL6gGsm9YIrn+w0L0M9QTe+7ouMAekZYQIxc72Q6xOg6x08OMjOj+fDsWh5AUpyMsHjDunKFa6eDWBzHsKdw+D8VpCfhcN2feg+Ywm2Ihwzz5WZPHgw8/9I9NngRGTpmtdZy/xNzJ4+aqqOW76Lw8Zd60gHHL6+ssGuxOE3RJaKrnZqzhvddML15w/rysX43HiYeTryAwyZU/NQrvrGfHiDu66tmf222bgSh9ltq6Us9M9hb683rpwa47Eg5LN+DZDmy4/B4hfYB+c355oYj0S8j5nyv4jEYP4CGVc5+7Y6og5MnDH3RcbKctVXViRe3Eeod8NUf/oG1mtw/dIy1+VqaaU59mKOrqvz1/DiZWS62z9/DS9r5yBBMzXAhSv2A+Rny67F08pzxQuxBJUxHzNzX6It5rv2REQiSPD0y/kUZMfrGY7RTO7MmUFXGBGJwNeffqqby7xwDzASJk+X5Kir6PxIRLlqdCmKC/dFxmbSDSzSeqWbcdp1BZtjnitecG6mZCYrW8fa+LjyyU6L3uJhdDO1WR8zH/q6nYU9ZmHq+ZCxscHnXXW6iEQ3f4GM2SfZWigVVDwUOKXirJiDI52FNAYNXiyprZxZ4S+yRBVUVAYOZjZv3q6e930xHzcZYfJ0aWXA9LMyl+a4XDXHgVhvfktqCyOP95gWY0IZx9YDVAcM7M+nojbSAPnjtPaO4th6IHC/XeU0FmXitU4wMA2zCUb6O9x4yKS4MSjdpZVB+2bHQV6pdb29VJcZkzj0RGtp62qnx+Mgr6whoEwoqGgwWtP8kw/YH2u7et4YW5PLvopI592clMFZSEvAWL29VPs/K9gRWermcYzMcVo711n63Bt9ojsHH4rPGBmw9Os35vP38Q4epT5OPyGyNKwNGlcQ3P1ngA53IS1FZn6eq/c3dLVTQyUtRZY87emjphdaihZS159FbC7LVfcR6jcGnl9Pbx09xGmMDMasWf3mNMXWcT6e3rrIY7nC7Pdsukf3d7gpbiukuK2J4mm/4+w4rVWjxtTRbU34s+b4MJ3RTsT4MJ3ulYHrTSPPdjfXGe+CCigTQtPf33EYKhoosxxr23q+q53OjAbKtkY57+4j1JvvCbKODfL01pn/mqdySEQWrJuGh8999lhlVaLTISJx8mR7G4s+T5dW0lLEonzZ7ZI4fzJvpl6IGcsLQEVEFj5rPZngMTIiItNn9M2PdZpnERERWYwUyIjIglVQ0RDS/z+0b76IiIgsRfP6HhkRkenov3Q5oL+9YbpjC0RERGQxUiAjIgtXVzs1ei+UyIz1dxxWy6WILFrqWiYiIiIiIklHgYyIiIiIiCQdBTIiIiIiIpJ0FMiIiIiIiEjSUSAjIiIiIiJJR4GMiIiIiIgkHQUyIiIiIiKSdBTIiIiIiIhI0rlpePjcZ4lOhIiIiIiISCweq6wCYLn1g4gkvyfb25Snk5jOn4iISHhPtrf5/62uZSIiIiIiknQUyIiIiIiISNJRICMiIiIiIklHgYyIiIiIiCQdBTIiIiIiIpJ0FMiIiIiIiEjSUSAjIiIiIiJJR4GMiIiIiIgkHQUyIiIiIiKSdBTIiIiIiIhI0lEgIyIiIiIiSUeBjIiIiIiIJB0FMiIiS1BBRQMtjeUUJDohSSefisYmWtqapn38Fv8xN49N7d5EJ0RElojliU4AAK5yGstyGeuto7Ur0YkREeOG5AB5aeCJmi/3Ut1WiJNReqra6Z6vJIqtktomip2RljDOk2e+EjRTC7JeMPPFlT5q6o8nOjEiIkvewghkRGTBcrrKKeg6Qn+YvxdUuIh43yzzqru5zhJMGkFm+uBR6jsGApZbvK0Cc8iVT3YaeNzRg5iS2iaK6aOmWQFPXLjKaSzLYqTzMB3uRCdGRBaKhRHIuI9Qr4JJZOEZ9+JNy6LABf22eTSfgmwH3nEvjrT5TpwsaqoXREQkCo2REZHwrpxlZNxBXnGYPu+lheSljTIyMr/JEhEREYlLi0xBRQNl2WfprL9IcVuhpZtJUJ95f9Pwi1Bq9L/3Dh6lfiDfvi90aSUtRZmWL7wMWZuVzT7UDt+fx4fprA/fBUZEpusi/SNZ5G3dTAkEjX/Jp8KVCZ4++nGRZ7N2QUUDZVsdlm+Cx9EYXZ/oraMnw7psUF43BY//8I/fiTCewkjDZY3fCcs3xsnksesOFbRMDOOhkq5eiLJd67XnLGqipSjM+LGA7RTS0lZI6LikBXrMze6H0fMttst5B/sIfKYRrmujZaxRwH4H7zN4B3/DSPYXyTNbfPPKmmgpC0yviCxdcexalsW+tpWcqKqjFfAVVMVtlRBUAGaXPsRIVx01/oonP2RrvgLSWlEUVFRO9es2K4upvxu/V9ZYDgpmROKmv8NNcVshOyvy6bbeOLjyyU7zMtR1HPJdQWv5JgsYpafqsD//l9Q2UdzWwPqgIMVZ1MS+waPUVA1MLVdWSYnbV3aY22OYziozf5dW0lLURDV1tHYNMFKaS17OXiDwxqh4qwPv4IsKYuyk5VLWtpIeX7ntKqexrJDGitGpm0QzMGDwKDUdlvNjU7aHSo56wQhSvAx11vmvy4KKBsrKmqjeaGyru7mO7lgmIOhqp6bLfoxMASzsYz6NfGscM+tyUxOEcCViAu35AlBrUOcqpzr/PTrqf6ExMiJiK35dy9JgpNNaSA7QUd+Hh0x2VlgrJAeMvBi5IHKVsy+osgLo72g315t6Ejz19wE6uobxpuVSXBq3vRIRjtMz6MWxtZASy7clxbk4xs/aj50xu5wFP8Xtbj7KkF1XNU9fwNPV7p5hvGRypy8vlxaSl+ZlyDrpQFc7PR5zMgIG6HCPgtNFhTWmKt2MEy8jA3pya8/LkLXcdh/hhAcc2fn+4MA4z8O8YD0/zXZlu41kqBdc5ex0hrYA9ncctlxf8bSAj3ms+dZ/zOx+ZybyqSgNCmIA3EdoVauLiEQQv0DG9oZmlKvj4FiTGfDt2KXIBVNBfhYORnk73BMv35PgnqCmePdFxoD0jCgFvYhMS//A2cDAgr3c6QSP2/4pd0lOJnjesXlyPED/iBecmwOCIs+ZyHnZ2J475EbXc8ULaSuNrihd7+DBQXb+VP4Pt56YbMrtgGMa9jzbl+2xbH+h1QsF+VlhA/LuM6NgTnYRNwv4mMeab8MfM+N3ps03G1xwOSAiEkUCZi3zcvV85CWcaxwwfjb8k52NK3Hg8PeVDf0FEYkr9xFOFDdRbE7FTIUL5/gwnbY3lfmsX8PMupfYMreX5htvEOyy+f/jvO0ppDg7nwIG6PfdEPbq5mjGXOtIBxzmmJAQcTvHiasXnGscYf6SIAk75rHn27gfs40rccRwDYiIBJuXQMZ7ZXRay3uueGFNhAXOX8OLV31lReZR95lRiouyKHDtZdVWB97BgTBjDga4cOWA7eD/mTG3FzIw2CaNPcPsLDOni9642XhJ54J5mWIScl9krCwX5uCllAulXoi63fmWsGMee76N/ZgZLTTp0RY7fw0va2PZoIhIgDiOkbFpfjebi6N1GQjWf+ly5OZ890XGgrqQiMgc6+pjaNxBdqkLJ6OciNB33XMltPuYwXjvjH33lfDCby+Ie4CRcQfZ+XupcGXiHezTIP9ZMW5EnTlhpt+OJgnqhUjbLcnJDNNVay4l7pjHmm/DHjPzd4KFdIcLXk51uojMUBzfI+Mgr9Q6KHIv1WXGgMVpPxHtaqfH4yCvrCFg4G5BRaX52Tf4+ADVAQM486mojffATBExGAPqHWnRA5H+jhcZGs+kuK0ycIKAWnNGpGm+7by/w42HTIobg/J3aWVQGWD05Xdku8hO0yD/2fNNolBIY9Ag85LayuiBZTLUC2G322DMZNY1s1kwYw6+QyTumMecb82HGnll1uXMAftB+2KMrSm0nBO75Y7T2juKY+uBwH12lVPt+6xgR0RsxK9r2fgwne6VlLU14e+ebDs3fmy6m+vwmNNf+vs7jw/T2WH8s7/jMP3m9KvWfsSe3jpNvSwyV7rewVO0lqvBA6pDDNBRP2BO29pEse/rccv0ydNynNaqUWMqXWsZMz5MZ33gkr7poohFKM8AAA7DSURBVJ3jw/P8JH2R6mqn5nw5jWUHaGk74P/aO3iU+girAUlTL9huN4b3tkTiuw6N6z/4PTJRJOyYx5pvB+iox5zW2becl6HOowyVBnZP6+84jLO2iWL/ObFfzn6fvQx1HjH/fZyeQRdlW42/6z0yIgJw0/Dwuc8eq6ya1UamXsKl97eIJNqT7W3MNk8nt6mXbMZ7jMF8WCznT/XC/NMxF5GlwFpPxrFrmYhI4hVUGGN4wk7TKyIiIouCAhkRWUT2UrzVoUH+IiIiS0AC3iMjIhJvRncyJ6jvvIiIyBIRl0Cmv+Ow+uOKSAIdp7VKL75cSFQvzD8dcxFZatS1TEREREREko4CGRERERERSToKZEREREREJOkokBERERERkaSjQEZERERERJKOAhkREREREUk6CmRERERERCTpKJAREREREZGkc9Pw8LnPEp0IERERERGRWDxWWQXAcusHEUl+T7a3KU8nMZ0/ERGR8J5sb/P/W13LREREREQk6SiQERERERGRpKNARkREREREko4CGRERERERSToKZEREREREJOkokBERERERkaSjQEZERERERJKOAhkREREREUk6CmRERERERCTpKJAREREREZGko0BGRERERESSjgIZERERERFJOssTnYCEKa2kpSgTAE9vHa1dCU6PiMg8KqhooCz7LJ31R+hPdGIWmJLaJoqdAKP0VLXTnegESZzlU9F4gLw0YHx4fvOAq5zGsixGOg/T4Z6vH51fBRUNlG29rLwj82JBBjIltU0Ur5lO4WIplCzCBiillbQUrWWos85fkBgZzwGePmqaj0dPn1MBkEisVLHNn6mb8HCMm3PPfCUoTqZfL8zyd6oU4C1O5v3ClT5q6iPX9SKy8C3IQCbUXqrbCsEucPC1rHiCCiVXOY1lTbS4Qiu+kpxMGB+m3+5piNNFhet4+CclrnJ2RrxJkPiIcM5lAdD5Wai6m+sswaJxntIHj1LfMRCwXMF8Jyzu5uIa3MudTvAODiiISSrTuBZc+WSngcc990GMWj3jTfWOhFqQgUxgRRyBq5zGoky8NpU07iPUu42Lvqx2L/1RWlkMXrzjDrLz88E9YLtEQX4WjnEv3jRHLCkUEaC/47AqcpmVmOsFERFZMpJ6sH9JcS6O8WFeCA5i/I7T2jtqtrLEssXLjIx4cWwtpMT273sp3urAM3J2pkkWEREREZE4iEOLjKW/aVCrR3Cf5qlm1osUtxXi76EVNC7Fup7T2t+7qImWIt/yxNYFoOsdPEWFRisL+TSW5WK0peRS1tZEmTnQz+fCwFmyt+ZyZykQ1HRZUOHCySg9A7Bza+hPBfdNDxlDY5lgIPZlfINNw3URCT3+JbVNFNNHzZnN5rYsA1Zd5ZZjQMhAR/856oJ9luWMdAaNRbIdJGmkc+owBA2WtQx0vFBsPV5Ty5WEPefqzzyvwlyLRDg/4a49T/AYmRiugyk211QvFBetZWgRD5idP0HH1zavRcnXIWKvF/zXTM+6gLIpuKU9tnohUhkRvA+Bv+EfJwmw9QAtbQfsW/vBcv2+CKWWMtFMQ8C28Npep6ovYL7rC+uyTnNZ6zENPG826bF0bXo7x9yW3W8FHDfzXsN3HYRJT7g8FfU6CRb2mAWvG2VfQq4t++vY7hrpGQlcJOwYSf94Zet2bcY8e/rooVD3BWJr/ruWpeVS1raSnqo6WsHMBIU0VozaVhhGdwKbfpGuctKBsUvhWmN8Rrk6Ds41mWZ3M/tBo/7+4u4jnChuothVTkGXtdDNpyDbgXfwRbrJZ2fAb5gZD8sA0dJKWoqaqMaX5nwqXNBTNdU9oqCigbKiBirOm5nYZhKCktrKGA6qjTUuGnPc1FS1T31nFkxThZmR7rLGcrBWMGm5lJUO01lVN3WjUdRAo8vBmLuOmi7wFYIB3fbMAo3Bo9SY57KktonitkoIKMAc5JU1saq3jprmqXQUN5bjqT8S/pzL/IlwLUY9PzbXnv14jMjXQT/YXlNTFaw3jju8RMVSHsecr2fBWUiLpcwxzvEBqksHbPP/tMsI85rxWq8jVzmNZQdoqc2kpvm42f0x/JiiUA7yyh5iqLOOGn/5XUhjowvHFTc1VZZAoaySErfvWKm+mDr+81tfdDfX0W3+7ljAsr6b51F6qg77f9tITwPrg27g010N3On2pceGea9hO0bGFX2f+q1pinidhJdd2sQqSxqN6yd0Xbt9MYInb+iESGVNVG+0rB9yjViDwcuRE2jLDGzHrZNt7KW6dgZ5XpaMBHQt8zLUaSmk3Ec44QFHdv6CGXza3TOMNy2X4lLLl6WF5KV5GRmwqdzMvw1ZA5+udno84HSVm/s1QEd9YKXf3+HGg4NVG43PBRlrYfxswCQE3c0zvFFIu8yJgCcV+VS4jEkRpgqAATq6bPaVwH3p7hnGiwPHFeu6x+kZ9IJzs78bnl1Xv+7mPjxksrMiPyB53sGjgelwj0JaFgUxdQGUuTarazHk2gsv2nVQUpyLw9MXeFPZ1U7noIKY+IheHk8nX8/cKD3Wm72uPobGwZmzNw7bNsq+kNYV9xHqp9X1OJR38MWpG1wzzY60y/RYrn+j/Mw0WvlB9YX5zYKqL0oLzSAm8Ph1Nx9laNxBXnHgdei44p71jXTUfYrpOgnHASNHA9LY33HYdt2QfXGVs9MZ2voSuv5UvrL7nZkoqTWDmICWu+O0qtVFIpj/QCao4AXwXPFC2krmcjIw75XR2Bd2DzASVImW5GSCx23bjSXc32z3y1VOY1sTLW1NtJhN6ukZRqHdf+my8XSrNg6V9/i1wOlVXflkp3kZ6gkqENwXGbOkwVg36ByZy0Q+hsZsPx53cNcBo0XMsSawiTokIDx/Da+lkpbEmtW1GHzthRXtOjBnkLK57vovzeRpn4SIWh5PJ1/PguedoBvwAS5cAdasm/0DLrPss30I1fUOHswJXqYteJtmmqNc/6ovYKHVF8Y5Cb4GAQboHwkMwGCa9xO2ou/TtK6TWLYfZt3gfTEmNAotFwC6z1iCrQj5ynNlJg+azPJ+RDMGyvQsyFnLYuK+yFhZrlmgRuoCkMmqtFi6oFkN0OEupKXInIoZ3xMKu6cC+axfA6QV0tJWaPN33w2Xry+wtbnW7MbgW7SrnZrzRtcOY1uzeBnblYuBhcHGlTjM5uyWstDFZ/1827WOdMDh67sakp7Z/oDMq9lci8HX3kyZ19T08q7E1WLI1xtXsnDmmFR9ASyw68o8J9P4zbkvk2K9TmYveF+ca2LMLfHOVyrvZYbiEMgMcOHKAfJmv6FpOs7bnkKKs/MpIEIEX7rZGKA/3WZgyyQBJWuMJnDb98749t9mUKuVfZOpDbNvrb/PrL9/rvGkKj3SupGcv4YX79y9TdgMLNV3dREJey0mOmEyb2acrxNVL9g4fw0vaxOdCpPqC2CB1RcL6Fr1i+06mZEoLYaeK15YE8N2ppGv+i9dxiYeDuS7JkSmKX5dy0K6ABjNhHPJN5ZlX9h+2nupLsrEO9g3g6dURp9eR/ZD7LRtAp/iuRLa9ByT0s0RmocH6KjvC+gTDTZdOcyXe0XlvsjYjLtQxMKcVCEufdplYbG/FuecTRdPn5KcOHVpkihmma8TUC+EiFT2lW7GGaYbzlxRfQELrb4If06MSX7su50lKk2xsDt35r5EaTE3uizajz8yXiZudjsLe42YvxNiLeuDthlYji+sa0KSR1wCGaPfZGBAUVJbGMcxL2EucHOwpmPrAVqC+wm7ymlsK8QZPFB4Gvo73HjSHDgY5e0IT42MQZiZFDcGDcArraTaHBRp9E21Fg5GkGVVUFEZOOjUrGSvnoepvrqF/m1CPhWluTE275qB2dYDlvXNbdRGGzgYC3OworOQxqDAsqS2cgaFsQq1RIp8LcL8nJ8w11RpZcCUojKXZp6vE1YvhDDeJ+bYeiBwH/wvVH5xXlsZVV8Y6VtI9UV/x4sMjWdS3Bb42yW15kxmM2wViRQURE9T9OskEsfWhwKuD2NfbMY9Betqp8fjIK+sIWD9gooGYyYz/+QD9tdIQcVDgVMng38sWl6pZV9CynFzMglnYdD93F6q/Z91XyCh4jNGpqudzowGysy598GYr7yHJopjaaKMyjdmxewvap07vKudGnO++sC+pIFTB86M0X0t/Uq0Fp3jtFaNGlNTtjVNNaGOD9NZb/yzv+Ow8e4Df5/jUXqq+sDa55m1QX2SA2cO8W/D36/Yy1DnUYZKY2sW7+84TL85faO1X7Knty4+Yxr8fbanrgMw39Uw7Y1FOOcyDyJfi/N2frraqcGYitd/TXn6qOmFlqKF0l1okZtpvk5kvRDjPkR9J8ecUH0BLLD6YoCO+gFzuuUmin1fB0wDPANdfQy5DpjnKfQ9MpFFv07C8zLU6WZVwPUR+xiq7uY6491fUdbv7zgM5rTOvmvEO3iUzsGHKAt4195xWjuN90T598WuHHcfod5tjAWz3s95euvMf+m+QELdNDx87rPHKqsSnQ4RiZMn29tY9Hm6tJKWImY+uHkBWxLnT0TmhuWFmBrPKIuVtZ5MwHtkRERmx+irHes0zyIiIrIYKZARkQWroKIhpD94aF9tERERWYqS9z0yIrLo9V+6HND/2jCL92WIiIjIoqFARkQWrq52ahL+ngkRkSThf7eQyNKgrmUiIiIiIpJ0FMiIiIiIiEjSWTY+PsGKFSsSnQ4REREREZGwVqxYwfj4hP/zsvfOniUn544EJklERERERCSynJw7eO/sWf/nZf39A+z64s4EJklERERERCSyXV/cSX//gP/zsl//5gRpK1awZ/euBCZLRERERETE3p7du0hbsYJf/+aE/7tlAM/90/N87cDDCmZERERERGRB2bN7F1878DDP/dPzAd8vBzh/3sMP/76FR772Ve7etpU3fnOCM2d+z8cff5yQxIqIiIiIyNK1YsUKcnLuYNcXd5K2YgU//PsWzp/3BCxz0/0PPvyZ9Ys/+eJOCgry2ZSVRVpa6rwmWEREREREZHx8gvfOnqW/fyCgO5nV/weYfkg9c+yxQAAAAABJRU5ErkJggg==;" vertex="1" parent="WIyWlLk6GJQsqaUBKTNV-1">
          <mxGeometry x="820" y="60" width="770" height="156.26" as="geometry" />
        </mxCell>
        <mxCell id="yhk8o4lR-U0t_7d8vfAA-15" value="" style="shape=image;verticalLabelPosition=bottom;labelBackgroundColor=default;verticalAlign=top;aspect=fixed;imageAspect=0;image=data:image/png,iVBORw0KGgoAAAANSUhEUgAAAzQAAAD9CAYAAABqfTKWAAAgAElEQVR4nOzdf3Ab930n/Ldd6dwlLZmiGSkiZJqJqKM5jPMgKGLlccKHcGN7UubgQfXY4bnIuLwJ+jyaejhP+KO9sg/LtCqm6F0Ioh2e5zwZZqp4jk9G9jMqKrZML26egA/ttHJxMB47LM2T5DCMFo4UhqKlUFuXPvv5Y3eB3cUCWABLgku+XzOescDF7he735+7n+9373j08Sc/BBERERERkQPdWesEEBERERERVYoDGiIiIiIi2lHq6upwxx13WNp2n9mHn334f8aveNy4r+U+1AmCrYkjIiK9H/1oGR/7WGutk0FERLSjSJKElZWrSP9/b2D+lVfx4YfmM2Xu0M6hOXbMhS//xr/Fe++9h39aXMTVqyJuS9K2JZpoLxse/CrGJ/6s1smgGuC1JyIiynfnHXeg9WOtePATnfjlX/5lvPTSeVx5+0f526n/c+yYC7/3u0NYfOstxC/M4L9fuszBDBERERER1cQHH36It9/+Ef7qwl/jh28u4PT//ls4/vGP5W2XHdB8+Tf+LV7+u+/hjTd/uK0JJSIiIiIiKmZhcRFzc/8vnnrqVN7cmjsBec7Me++9x8EMERERERHtSAuLi/hn6Z/xv3R9Vvf5nQDwKx43/mlxsSYJIyIiIiIisuKNH/4Q7v/pk7rP7gSA+1ruw9WrYk0SRUREREREZMXy8o9x333HdJ/dCQB1gsAFAIiIiIiIaEf78MMP8fd/f1H3GV+sSUREREREjvGrv+rT/ZsDGiIiIiIiciwOaIiIiIiIyLE4oCEiIiIiIsfigIaIiIiIiByLAxoiIiIiInKsbR3QNH36C3ja/yk0lfWtbgxOjOMbz/8xBj9fYtPPn8afPT+Ob0ycxmOVJ5OIiLacC4/0/joeud/evVbWzhARkZPts2tHjw38MZ5qF0z/9s4PhvG1F/w4/e+60XIn8MA9r+Nr/8WuIxORPPD344G64lvdXprBV2Nz25Mk2l6fP40/e6oNeVlgU8K7PxPx5j/8HWa/exmrtUibiYd+O4SnP3kA+PQRYPh5fN+WvbKdISLai2wb0GR98D42N/Ufyf++iXd/AeDuW1h9x/ajEu1x72NTeh+bv6T888592L9f/t/N997PbnVb8/+0e2mv+f67BNzT3IbPnWrDyc+8jm/952m89rMaJk5x8+ZtbOIAcHMN5TcJbXjst34Nj7S7sPnG7+FrL2T3ynaGiGgPsn9Acz2FZ//wRZM/zGHyd3lnmGhrvIrJ//PV3D/Vu/W3LyM++Dxerl3CaNtdw8X/4+vI9vE/0obH/s2v44snj6Cu+VP4jS9fxduxuZo/qXnrv3wdz1b8BMWFBzvuR1MdDIMhtjNERHsRFwUgItrNfnYZL//F1/HNi2sAgLr2zyLQUeM0ERER2cj+JzQFqTH+Et566Q8w8T3l4498FqHQo/jEfQdQdyeAD97H7Z++ib/61jS+/+PCe2v6tB/PBB7CA/fK83Y2fyHilR9IW/4riByrpx/PPXE/9uMaXvmDr+MFTdhRz/CfItC2D+/+8EX8zqIn+3TnpbMiHuz9LB64V64qbv/8Ml499zxeeiP33abuIE5/4QG0HFLm0G1KeCf1t/jmX7yKlW38eVTcm3+RwtvuR/Hxuxrx8c80AovyAOfBU1/Bkw+fwNG75Wu8eXsNV/7+O3jhpdexCrmuffqLD+GBwwL2q3X0pZfx1ZhaibvwyL/7EnoePIJ76pQmZVPC29//A/zpeU29f/5vcfthPzwf3SfPq8Tv4BsPHwF++hr+tz98Efo24v/CTz756/CdaJSPeXsNb73yl5g4vwg8o3xPcfThcXzjYXV+GAq2M0//ZjdO3t+IOjUU0/A7dcc/fx7v/MopfO4++Tdv/kLEKy/E8G1Nviciop2jtk9oPtKNwX//63jo/gPAjWt4J3MN7/wCqGv+FJ5+9iv4XKHvdXwJ/c90y4OZDySsZq7hXbjwyCOt+RNiiUg2+0/4yXsAcATHf61R84cv4JP37QNwCyup1zSfN+KRr3Tjgbtu4p2f3sLmB0DdvW147JnTeOwj8hZNj5/G6NOfQss9wGpGLsPvQsDRk7+O/t9+aNt+GlnxGlbflf+vruFBAMCDz/wOTj/egaN3SXL9m1nD5i834oHP9+L0U43AR/w4/Uw3HvyoAPxCqaPfBeruuVfZZweeGevH0ydduKduHzaVevzdzf0Q7tYf/Z6HvwDPR63dQ2v61d/EYycEvPvTa3j3PQB1jXjg8d/A4OONwOp1vJNZw+0P5G3VY/70ZzfNd6a0M4+0NaLul+T24p0b72N/XSMe+HwQ//60MZ/uR8vjvXjkIxJWfyofZ//dLjzy5SJtEhER1ZT9T2g++hC+8by2gbiGV05r4rk1Hvvyo3jgbmD14jfx+3+xqHz6EPr/45fw4MET+JwfeGUm/3s9X/Tg6H4ANxbx7Ylv4vs/AwAXeoZPI9C2jQ+diBzle3jl0ufw8U8cwNGPP4omvCjfmfafwH13Abh+GS//AIC6PHpdI5Cexu8/r9zB/uSX8Ee/9RCO3t2Gz/1aI15+4UE884U21H2whtee/xNMqXevH/4Kvv5MB+5pP4kAXkN8+38omVrDv3yg+WfHl/DkZ45g/+3LeCnyPF5Wntg19Q7gTx5xocXtxwNrApr2A7h9GfHfVediNeKhT8tPSJqe+gJONu8DPriFN+OTmPzuWoFjCzh67xpS557H898X5Y+eKZROAU14E1Nf+5ayeEEHnvnD38TnPirggYcfRdMffgtfm82t6re6+HXNogDdeXvr+c1fwwN3A/jFZbz0H3K/88FnfgenHz6Cez75WTz9kdfw7ewTy32ou/06Jsem8SaQy88Hj+FTJ4FXLhY5xUREVBPbsMrZ+9g03fCzeNAlh6g0nfwKvnEyP2nCIfPvPaDc5VtJqYMZABAx+7qIx9tMli0lIgDAK9+7jJ5PfApNh1147CPAt38GPPXJ+7EfwMrCd/CWduMPRLyuDmYA4I0X8fpVD45+bB/uufdB4JEOtNQBQCMe+u1x5D2PueuXcXDLfxFZ15YLt3rvJvArD+HonQDq2vDUH4/jKePmgoD7MrdwG0BdXRu++IencfQH8tLPr/2jPHB55F+7sB/Au//0nSKDGdm7S3+XG8yUsJL+lmYltkW88N9EnPzi/dh/sBGfAspY5ELTXlzMDWYA4M0XXsMVtx8P1Llw3AfgJfUv7+Ptf1QGMwDwg8t458kO3FO3D/sNT52IiGhn2MZVzkwOfScAvI93fvgmfrKRv8Xq5WLfk3C7ePtJREaL38GbP/kUHrnPheO/2gic+yzaXQA+EHHl/zEUqH+WsG74+sa/bCJbbagBq+9dw5vpDPJnsP0cb9ucfKrCRzw4ei8AvI+f/+R14NCj8uc3f4zXFk0q03++ip8szuHb3z2Ap7vb0PRReennz31xDW/+129hclaEoAyQbt98Lf/7OhLe+e+ltsltm1e3397EJoD9FveQU6y9mMPqTT9QB+zXvUJtE/9yu+wDERFRDe2A+Kx92PzZdzB1rtzRyX78K+OjmLr9FTR4RHvJGr79+o/xufvuR0tbN5qeakXLncDm5Tc0ITeFNOLoPUrP7wPN+2z2v4/Vv5628H2qnUY89uUHcRQAbi/jv81AE/J1G2/9xTReKfTV88/jzfONeODxbjz2GQ8ebG7Eg//mN/DMj76e3aTu7k8BeL14Ev5HGcn9Jf0/m1wH5CfvHwCVvUlJQF2j8bNuNB0EgPch3ahop0REtEPUcFGAOfzk5/L/tXz6S9lJxgCA+z+P/tP+At97E6s3AWAfPv7pIB7Mft6BZ37FxQENUSnq4gCuVoT+tQvALbz1g+/lb1fXis89k1vft+nxL8HzUQB4Hz+99CrwPRGrHwC404WTX+5Gk+arLT1fwelTW/oryKr7H8LTw/14ql0AIOGtv31RDtlaWsO7AHDwBB57RruOcyMeevorCD0C4POfR8/9ALCGt777l5g8k8Db7wG48yCamoHXfiLfiLqn41GEPp03YqiQgOMPfylXt3+kG898Up6zs/nTS/i+Yev9v1TsuHN4KyMPgVpOnta1Mw8+8xCO1wHYvIYr/2BT0omIqCZq+oTmpZnX8AllkvFTf/THeOSnN7F5Zx2aDh/A/uuFwhPW8ML8ZXieakPd4U+h/8/b8M7Pb6Pu3iOo25SwiX0c1BAVpS4O4MLH7wNw8ype/4HJZu8BTZ/5Cv6s/Rre3VTKJYDNTArxWQCYwV/9wwM4/fAR1LX78Sfjn8U7NzcB4V4cPbQP75jtk7bBEZz88z+FOi1x/11KNf/BLbz9dy9iQp3rcvEv8d2HW/FUu4CjD38Fz3Vcw6oE7D94BE13S3jrJQAuDwL/62N45PrP5VXF7r4XR+8C8N51vP0G8NYbr+Ktdj8eOHgED33l9/GJU9fwrgTUNdyL2+nf00zWL8f7wKGH0D/ehndubqLu3iO45y4Am9dw8W/Ugfeb2XCxpk8P4E/uk7C59iq+9p/y9zb7Nymc/G1DO6PkUeB9vPOPf4uX+HSRiMjRarts8xsvYvKFObz1cwmbENDUfARHDwvYfFfEa3OvFv7e957HN797Gau3Adx1AEc/ei/2//x1/N/fFQssQEBEWq9873J2sv/q0px5uNH/WMbf/PUibt99BEc/egD7IWF1aQ7f+s8vZhcPePOFb+Jb37uM1dvvA3c34mjzERy9exPv/vh1JPjC9prZf9e+7H+bt2/hnR++ihf+wx/hT88varZaw8ux5/Hti9dwexPYf+gIjjYfQdNdEt754Wt45Q0AYgbv3Abu+egR5doCt3+6iJe/OYn4zwD8bA4TX5/Gy0truL0J1Cn7qIOE1dUCiStpE1f+63fw5nsHcbRZHszc/vllvPzCN/FCNvlreOH8q1j5BYA7BTQ1N6LugwLBaIsv4mvjf4nXfnwLt9V25tA+3L4h4rVzk/jaC4vm3yMiIse449HHn/zwuckYxif+rNZpIdrThge/un3l8JO/iT/57QfR9IGI738tpp//8vnTuRdrDj5fxopSVKltvfY7VoGXLxMRERkMD34Vz/YPZP9d2yc0RFQDjQj8WgeaAGz+5DIn8xMREZGj7YBVzohoe3wJv/cf78fBO4+g6W7IcxLiJm+uJSIiInIQDmiI9hDh4BE0QZ6T8Oq55/ESpw8QERGRw3FAQ7RnvIivnbbw0tvvPY+vcv4Cbbs5TAxyJQkiIiof59AQEREREZFjcUBDRERERESOxQENERERERE5Fgc0RERERETkWBzQEBERERGRY3FAQ0REREREjsUBDRERERERORYHNERERERE5Fh3PPr4kx8+NxmrdTqIiPasH/1oGR/7WGutk0FEROQIP/rRMsYn/jz7733q/zzbP1CTBBGR7LnJGMvhHsVrT0REZJ3xYQxDzoiIiIiIyLE4oCEiIiIiIsfigIaIiIiIiByLAxoiIiIiInIsDmiIiIiIiMixOKAhIiIiIiLH4oCGiIiIiIgciwMaIiIiIiJyLA5oiIiIiIjIsTigISIiIiIix+KAhoiIiIiIHIsDGiIiIiIiciwOaIiI9gpvH8KxMYS8tU7ILhHoRzQWQTQWwWCgnC/2YLDs7zhMoB/RPZDX/MMRRId7ap2MbbQH8i450r5aJ4CIdihvH8LBdqzNjWAiXuvEUFGBfkS7m4tuIs6NYOLqNqVnLwj0I9p9CIvTI5hK1joxZMYTGkOw8wYSA5OYqXViiGhLcUBDtIf4hyPwYR5D47O1TgrZKT6JIc2g0z8cga9hCdOjZ5HSbrfL75ZvJ39bM7CxhFSJwYwnNIZg60r+taCK1aQe8/YhHGzB8vQZDmCJdiAOaIjIXPIsRtlwE5FDpabOcBBJtEdwDg0RERERETmWbU9oco/Vr8MX64JL/YNofCzsRijci456zUcb+tCI7OPky8c1ceESFqfPYCrZg8Gi+wfkSWuabZBhDC3tEca8r8ydgHaORReisS5ky0U2lOICEJDLprRwDqNpt2EOjbxvzI0g0TSGYKeg7E8tm/qUyPHrQvbf0sI8llu70LHOkLedwD8cgS+bUczrSP02Sl4qNp9KE5ZzzVds/6XbgWybEgdOBduh5iQ5DYbvb5iE11XcDpikTdvOKHPL5PS0IxiLIGh2fLPtTMqKvpyYlyX7roPxu7kyfalN2U7XpubXJ9LCOYxOpQ0HNDnXc/otCs5nyc5F0v7uAtdA1ycw1GMmpyHvmJbzp5Y+LR3BCKJBk/Ogu94FzpNhG/N8aziusb5U5svpr6O8beuyfExj3ZuXrwrV+Up6reY3K3k3Py2Gc216/WE+hzNvrqDxurHvt5fZG3JW345g7AASAyOYAJQM2YVwKJMr2IEutC6fw1C2oMsZMDjcg5S20Lq6EMU8hgYmkS3YgTGEg8Dy9AgmkgX2rxQCLOSO4R+OwBfrB5ixaVeTy1KjJu8j0I9BIDvHoljseWvgCSzHRzCUbfTcpkdxdUdwauEchgY05SvYD38yV77kBjGDxMAZ5TNNp2Ddth9MFRHQEYzg4NwIhsYB9dr4wn0Qs50r5XphCdMDymeBfkS7IxhEqUUiLOzfajtQ345gYAnTAyNIQclX3WMIewWsJUeUeUMm3620HVA7nOI8hkb1nfpo+LDc+VRCMQvOU1Ip2xWbQ1O6LFVzHYDWQAQHk+p1UNJi8t1G7xhOaLZD9jjNkLT1ibcP4WAvosPNeQM8GOodueMpFU+gKaVTuqH5zejB4DAs1WOlWcn/WmlMjaaLz6FxdSGqyafy7+/FYCCd1xnPDQ7k4wbDfUCB46aWn0BH53H4gWye9TQdkg/Z1gNAvQZutNZLWE6nAfTA17qiOXfmdTRgUueXkd8s5916bTuglsMxHCl3LpLJIhz+4f7c39n32/NsDjmTsDityTjJs7goAkKrGx71s/ik4a7FLBILEtBwOLcNACCDRLaySmMqmQHqBWDhQq4QmOzf72uHsLGE85pjzIzPQ0QzTobMO2hEu4L3MBqhNmqK+KTFFcoEYPmCtQZGnNeV4ZnEEiQ044S6jKe3DyddhroAaUyNzkO0khTactLCOU2+UOvXFnjURQMCXeiol7AY13S04pNIiIDL22eoqyvYv+V2QJ8GOa8JENbnNftXvuuSO35A5e2A36cMZnQd5VlMTC9Bqm+Hz+6lakuVpaqugwAsn9OV/9TUGdPvCutJQz3hRsjbnP+UIXkWo3MZwOXNLsesnjPddvFJTC9UMpgB/MPKYEbXyZ/FhI1PdUvmz7JlkNCmNz6PxQ110AGo5xPivP648eL5KpVe0ecHuOFpFSCKGV1Z8bhbIGysKAtUzGLCMECS89UhHNH9PpM6v5z8Zinv5j8hmRk/h8UNAR2+8pa69jQdArK/Ud2X5iYa+357nr0DGkNmAwBxXQLqD+geWQPK2u3K+v3BTiF/G/GKfkR99RYkAGurxkfdWj044QLEpPFuRwY3NwChofiypkSOlryONQjoCPZnO3blKF62csTLho5F8jrWADQ2yY2Gx90CATdwLW9wJJdDqjXDoBdQ6lcBB4/J//S3NQNiMm+AW6g+L3f/qpLtgLFNUfKatJ4pcvxK2wHle8b8DQDJNJZ1HVR7lCpLtl+HAt/NO5+6O/4G8SsQIaDV7Uaxc5ZavVE0debk/UnL6S2czG89f1pm7K8gjWvryA06lPO5mCh+vfMo+S77d68brfUZXErcgqQZgLkaBGD9uv6cad6RFA22QzD5fcY6v5z8Zi3vGs8LID950t+AsCK1ekN+Ymv6zh/2/agGq5xl4ynFeQwNzGo+s2Hn3sNoBCB0RxDtNvk7Q11oV5vFxEBGDp+IReCDhVj7LAk3bXpHiatBADZW+DTGsdw40gCgXp2jYFRJR1VvR7YDyvfWbEiCPbb+OqjybmYcOwDBfFM9u8+Zuj+LN1cc49gBCEqoWzSY/+fCz7KUsLNWNzxIA+4WCGISM8kMjgTa5UFlslnuzM8Z53hlkBgY0cwdas87qr7OtzO/Kfuys88Vn8TQVXmaQd7cKfb9CNs9oPH24VSnUEYnq0zJ61gLtgN8ESDtWUq8N3Lx8uEms0m8RIWkcW3dZDKyXXZqO6B+b8fYwuuwcav4DYertyDhUOn9lHHOUqs3YNKXr3h/jnL1FiRIFb3DJrV6A8HOFni8bqBVgJiU80Jq+Ql0NDQDgeNwIYOEOi8nYBY2aYWd+U3Zl5VNreY1QPMqAWXeU3YuDvt+tCOWbZZjQu0hP160OyyAyInUePntftw+c7lAPLrXjdZ606/QDiOulx8SUp2d0A4U+Z6Sd03D0bZQdddBDQvTUs6zMTzJSAlfzf8+lA60GrZV+Jz528zqHeM8DuN2u7QNL3Y+S1FC/A66lXAzpcOeWr0BuI4j1HSoQGhXjhwGXJqd5b7wvpQ8qEtzfjhc8TSrczLV7+3SfENl2d4BjRJjqc10ntAT+qUZq6JM7nN1IWyYBOYfrmxeAZFjePswqMv3Sjy6Jj5+Wzqq8Xl50qduLo9y53Arj0u2SU0lIaIZvrBhInCgH4PVTozfse2AMknb1YWoLk6/B4PKymeV3P2VY/8rm3Be7XUQOp/ITt4HAP9wrzzp2ziXI88sJuYyEDp79efQ24dwdzOk7OI8Bc51oF+37C+AbMe8I6D5LXnbFbkGmn9v/4Ab1Q1KlIUrhM5ew3VzIzRcanGHWVwSgcbWFgjaQUD8CkQcQmuroBloK3N3tOdGeSJqhZ3lPjV1AYsbzfDF9GVOzoOaRZ/U+Wnd/UXT7An16/KyOrCWw+bY96Ntn0Mzi4npw5oYSHm1kemFJ+yJnQY0cZa9iMZ6sx9LC+cwatMhiHaqxk6TfK8JN0tNJeGLdSlzbLZqjf40pkahm8sjr4B4DosBi2EIVGO5+Vjy+1MUG0uYrroi3cHtQPIsRpV3nWnnEeiWLi47LfNY9PYq8yfM39VRWDXXQcLidBIHdfM2yijzBc5hXqhgfBJDkJcpzm4nzmNoDoh2a0OJ1OvenvstZtsVuAbi3Ej2/7enHjOaRWLBi6BSx5q/j6ew1NQZpJQlkLXzPMS5kZILIMxczsDX3ZwNN1PTc0nsgs+lnwszM34OR7R178YSpqeXcMpSKJ+d5V4Of5aXTlbbAWVfA9rJ+2lMjTZjMHs9C6X5kGEOkqEsse+3593x6ONPfvjcZAzP9g/UOi1Ee9ruL4f6l79Rzu6/9rStir0zhYhoFzC2mztgDg0R7QnKPIRdt4IRERER1RQHNERksx4MGmOwq5yHQERERFTItr+Hhoh2uwxuoksfg40q5yEQERERFcABDRHZLPcuHCKqgez7OoiI9gaGnBERERERkWNxQENERERERI7FAQ0RERERETkWBzRERERERORYHNAQEREREZFjcUBDRERERESOxQENERERERE5Fgc0RERERETkWHc8+viTHz43Gat1OoiIiIiIiCx5tn8g+//7zD4kou333GSM5XCP4rUnIiKyzvgwhiFnRERERETkWBzQEBERERGRY3FAQ0REREREjsUBDRERERERORYHNERERERE5Fgc0BARERERkWNxQENERERERI7FAQ0RERERETkWBzRERERERORYHNAQEREREZFjcUBDRERERESOxQENERERERE51r5aJ6CmAv2IdjcDAMS5EUzEa5weIqKt5O1DONiC5ekzmErWOjE7DNuDXc8/HIHPBQAZJAYmMbNtR+7BYKwL2M35KtCPaPchLLJuoRrZsQMa/3AEvoYlTI+eRcrSN9wIhXvRUa//tGDDlC18I9nC5wmNIdgpAOI8hsZnS6fPxYaPdjFvH8LBdqwxj+98ms54IeLcCCaublN6bCLXyTe2vvNp0h7Q7pLtUwxY7VMQkZPs2AFNviJ3ONTGXJzH0KhmIOLtQzgYQdSbPzDytzUDG0tImTVeLi9C3tnCDZu3Dydd1f0asmIP3NXaZv7hCHwoPWAnh4lPYkhTRgreEPJud8LstxV5uGh7QDuW9bzQgxMuQFpIb/lgxhMaQ7B1pYybsVQK2y2yYscOaGbGR6zdkfP2IdzdDGnhHEan0vq/Jc9iNCl3ioPDPUhZKgwSpA0BrW43kEybbuFxt0DYkCDVC1ZSSORMybMYZQePaig1dYadQiIiKsnxiwL4fe0QNpZw3jiYyZrFxFxGeepiZY83sLwsQejsgt/07z3wdQoQl1cqTTIREREREdnEpic0yvyV9fxHgsbQh9zj2OvwxbqQjdwyzFvRfs+VncgHoDuCaLe6Paw9Ro5fgdjdJT91gRvhYDvkZyvtCMYiCG7Ix1FdS6+gtbMdJwIADKFOnpAXLmSQSAMnO/MP5demFSZzbExi3Utvo05glJ82NeY9jco//9lHtJePK/vSTIJU5kZkny9t6ENTstcoDpzSbCen0zBXacNsnpOcztxpMEzA1ExMvubTnq/cdv6C15yPnIsznnvlukGbp7oQjXUhe76z1+MCEJCvrbRwDqNpt2EOTS4EMNGkzDcDAEimE0Gzc9LUrRbmsdzaZVpP0PbT11Xmk6RL1mcGBee8GCYMW20HdPsLFMnDBVNkMrdSewxdXahvD/LblFz+v9SmOS/q9oZ62+xc5ZcJY12eX37z6r2C7UMF7XC2jteWYav1d66+0KZT/xvN64ai+cpC+4Ay8oIuPZ29iMZ69ec973zmp7loe6o7L4a8ZLIvK+endD4xKlQ353+3+G/Jz3/mxzbJI3Nmv6F0XVDoN6v79JVd5mmvqk3IWX07grEDSAyMYAJQKoIuhEMZ00Irh5+ZzKfw9qERwNpqsYIOABnc3ABcDc3ZMBqzGHOPunnyLC76IvB5++CJaxs2NzytAqSFC5iBGyd1x1AaE2gmHQb6Ee2OYBBqmt0IeYHEQC6czhMaQ7B7DKGrSuE2mZzqH+63cFJNNHgRbktiaGAy95lSeecaEDndwXAfoHC6fcgAACAASURBVG3E69sRDCxhemAEKSjnq3sMYa+AteSIEq9vEs6nVOpYOIch5Vr6hyPwxfoBXSUkoCMYwcG5EQyN59LhC/dBHD1b+JpTEbkB75CmsR4EsnMsisUitwaewHJ8BENqI+N1mx7F1R3BqYVzGBrQXN9gP/zJ3PWVOywZJAbOKJ9pOpbrtv1gqkjxsifXAVbqsyqV2Q5YycM6agdTN7dSLiPR8GG57i/SHhTi6o4A6rlTjnEqPIYgVrL1ZV69DpMy4e1DONiLcAjZ3+sJeeV96zr3mnNiZ/uAFpwKrOC8kmbtObNWfz+BxWmlvgj0I9rdhXDYC2E9iaEBzY01Xd1gNV+VyKNl5AU5bNH8ZqB8TaT8xYGCEQweM+Rzs/ZUS8lLxebQVFR3muSTQhq9Yzi1fCG7f/ncmny3SN9A0rYfyrGjw815NwFgaGfkwZFUNH2FmF0H/3B/+WWe9rQahZxJWJzWVI7Js7goAkKrOzeoqLGZxBKk+nb4ApoPA13oqJewnDapVJS/LWoHQPFJJETA5e1TflcaU6P6OwupqSRECDh4TP63p+kQsLGim5w6M17h3Yj6G7ioqwDcCHnlxRNyFXUaU3GT3wr9b5lJLEGCAGFd+91ZJBYkwHU8G55nFgI4Mz4PEc04GdJ3kKWFc/p0JDNAfQs8u2Dick14D6MRhvwZn7TY+RSA5QvWVngS53WNo5w3muUnmoCyaIahjCONqdF5iFaSQluuZNmzVJ9VnYotbQf8PmUwo6sDZzExbVbflUFbf6pprofuXKn1uhwVgOxCMuKc/veeX9CHN6emzujLq7r/Bvkutb3tA7AcNyyWU1b9rakv4vNY3ACE+htIaM53Xt1QRr7a8vYhW0/pnxSkps6Y5/O89rQClurO0vmkEGE9qR+4xCcxbfbdAn2DvKcxybMYNYTsq+XK7DgVCfQrgxn9dag4X9OeVZsBjaFCBgBxXQLqD2ArFw+T1jPWN06msbwBuNp6sh/525oBMWna6Sv0N9Pf5e1DOBZBNBZBVHls29gkNxap1RvyncvhHlRt45a+A+l1o7VewmLCUCknr2NNkwb5u4ZrpGxT/BzKK8mISeOdKfkJmdooy0wGhldvQdIM7qhMyetYg4COYH/Jhs9M6SedMvFy8fzjcbdAwA1cyysncj6gWitd9sqqzyq1pe2AUhcZ8ypgWreXw7hPcV0CTPN7jryQzBIShpsLqdUbAA7hiK6T7kYorLYPSshVw2F4YHP7kJfmaurvNK6tI7/NMbCer7a+fZCvSX4eBICZyyaDpxK/zQpLdaflfGJh/4W+W6BvYHqzNn5FMzgvXK7k45RPXmHQ/DoQlWPHrnJmSfI61oLtSmVQrDPWjIP11jtssjSmkl2IditLOEO9m2N2h8aNIw0A6tUYTyO1oKtxp9pHq8qjcHXT+CSGrsphBlXHi65f1zdMxw5AUB7lR4P5m1d4fyXHexiNAAR1zkteeqo9ABU3i4mBjByaEYvAh3LekyThpk3vKHE1CMDGCp/GOJbV+mwHU+qitVqnQ+FqEJQQuwjyq95czavOLZGMIV8NygZ2tg95ndqtrr93Vr5yNZS5SqmxPd0CVvNJ1Uz7BhbYXq6UPLEN55Z2P5sGNGlcW+9Fhz07K8MsLold8LW64UGRhQECx+WJ/OXGfWsWE/A3yI/ize8iKL+/xGRn/3AXXAUnnGpkl8tV4oZjYzgyfQZTSflOWWOx7xZz9RYkSFv3lnBlgMk5L7WUxtSoGo8/hmB3BOGmUhNKibSs1WdmUqs3TDpiNaDWRTuEuC4BDSXeTVIg9CZPwfahynZ4y+vvyvPVVpCvSa1ToWcpn1Sk+BNEuW9wqPRuyihX1uqCWvUdaTeyN+RMeSyeIz+e3ErqXJdTIfMJzEAPBrubIS3MV3AXS54jIrQ+Ice15j2KzxHX9XNJLAscLxJeoc470D9m1z/6h/K42MKxlJCkbFy37ZTFFyoM5SB7qbHgeflli5mGawDW8ynVXMX1GQCz0Bh/2/bmwaJ1kZIPTcPRtogcKlbJ/I9ibah5+1B5O7z19Xd1+cpexa5JrcKgKs8nMrNrJ/+WEuFyxfoGgeNwZUMAC+cR8zJeui7YSXmCnM22AY3cidEPLPzDXTbOiSlQkJRJa0JnL6LGuGJvH8KxLriME9jKkJpKQqwXICCDS0XuWsmTQJvhCxsmEgb6MahM+JPjhLWVlTzY0vKE+vXvy1EqEzkcKI3UsgS4urL7BNwIBdqtPS5WB2idvZrvK/sYtmOirzJx09WFsGGA6R+uZF4HB0hl8fZhUHfelbdja+Y9bUvjEZ/H4oZxLk85+ZRqzUp9ZkqJt+8IaL4X6Nct0Vsta3lYWezE1WVoF3owqKx8tq1PkU3LBPRlVpkjou1UGtvQ4u1Dte2w3fV3vorzVQFV1WfxSSREAR3BMd059YTG5Cdl8cqeklQ1KLGST4rR9Q3U31L8ZqxMfl+f0Nmrv/bZF5erC0AUyCNmZdxiXZCauoDFjWb4YvrfrM1zHPSQFfbNoYlPYrppDEFlnXdAjt9PQBP/WxV1TosSf6tdvSY+iSHl/Sj62Fz9MoCVkcPaGtdLPeHJzV/Qxb9uLGF6VP7f1NQZ+Z062TksGSQG5gHtHBocMsxx0YcgZPeRjXOWsDh9DosBa49tU1NnlPcl6OOkxbkRex5xZ2O8c/kAUNayL3tnRa45mWrsNDnvmsF8aioJX6xLmWOzVev5pzE1Ct1cnnLzKdVa6fqs4PemDyMc1MwDEOcxNAdEuy2EtFhgOQ8nz2I0qSzTrGkXdMvSbhs5FFReAlktE4DcBqRz6T0mL7NbuA0t3j5U3Q7bWn+bqTRfmau2PpsZH4GoLNOcO6dV1ovxeSx6e5XrZCGEUMdCPilCnDuHm15t215GH6jAtc+bhxmfxBD0+dS8jFutCwr8ZnEeQ8r/bk+7RU53x6OPP/nhc5MxPNs/UOu0EO1pu78cyjcdWpc5p8do9197Ito6fGcb7T3GdrNG76Ehoj1HmbtQ3mqDRERERMVxQENENuvBoDFGvlZzF4iIiGjXc/Z7aIhoB8rgJrry3qVQm7kLREREtNtxQENENsu9C4eIiLbaLCYGuGAO7W0MOSMiIiIiIsfigIaIiIiIiByLAxoiIiIiInIsDmiIiIiIiMixOKAhIiIiIiLH4oCGiIiIiIgciwMaIiIiIiJyLA5oiIiIiIjIse549PEnP3xuMlbrdBAREREREVnybP9A9v/3mX1IRNvvuckYy+EexWtPRERknfFhDEPOiIiIiIjIsTigISIiIiIix+KAhoiIiIiIHIsDGiIiIiIiciwOaIiIiIiIyLE4oCEiIiIiIsfigIaIiIiIiByLAxoiIiIiInIsDmiIiIiIiMixOKAhIiIiIiLH4oCGiIiIiIgciwMaIiIiIiJyLA5oiIj2Cm8fwrExhLy1Tgg5UqAf0VgE0VgEg4EyvrcH8p0nNIZorB/+WieEaI/aV+sEZHn7EA62Y21uBBNx+3brCY0h2CnkfS7adZxS6fb2IRxswfL0GUwlbdwvkYlsfhfnMTQ+W3Rb/3AEPpeNZYFqJ9CPaHdz0U3EuRFMXN2m9FSsB4OxLjQunMPoVLrWiXEEuczfQGJgEjNbeaBAP6Ldh7A4PVJeW0ZEtA12zoBmS2X0lX2gH9HuCMJNzmo0PaExBFtXMD16FqlaJ4Z2NpcXIe9s4Y6Htw8nXduaItpK8UkMaQal/uEIfA1L+XXFLr5DTjn+4Qh8KH1To6x9tjUDG0tIlRjMsJ2ymzzIB288ERW1cwY0ybMY3a67PvFJJNoi8LW64UF6Z1a623k+aJeRIG0IaHW7gaT5gN3jboGwIUGqz396SVQ7s5gYsK8Tvhekps7szDaMiGgb7dk5NDOXM0D9AfAmNe0+N7C8LEHo7CoQz90DX6cAcXllm9NFREREZD/bntDkHjNfhy/WpRkoGMK9snNKLgCBXnTUA9LCOYym3eZzRvJiwyUsauejKHNNsveZN0zCLCyRH+uWn+4yD6OZU3PNJ89hKHw85Xxc1f7GdgRjEQSN54FI41p6Ba2d7TgRAGAIU/CEvHAhg0QaONlp8uVSZQ6akJbEYV35k8zmPhQso26Ewr3oWDcJjeEcsi2nzqGSZUznYOi3sTDfqmD9ZvxuLozmUpuynTiPoXEUmENjrJ8Nea2CdqBQHjb/boXtQ15Ic+E8bwwTLNimGubH6ebQ6MpuF6Kxrvy05lHSVK/5SHsMr0n7Y3aOzLZT6w7j79xx+U75rRbqvvzfCmBjCYll7QbWr7Nue8M1SKAr91u6I4h2w9L8SKK9yOaQsxacih3AxYERTABQC6kv1g8YKq3WwBNYjo9gKDswceftTZ3grK2QPKF+eNQNlMon93f5eMFwH1CqMVPigUUgWzlh4RyGlAbIPxypON2lCegIRnBwbgRD47l0+8J9EM3SrYSfMTaZLEuexUVfBD5vHzxxfcPpaRUgLVzADNw4afia3JGQdBN/PaExBIMRDB4zdCpcXYgGljA9MCLvP9CPaHcvBgPp3HalyujyE+joPA4/oCtnfl87hI0lJDiY2QJW6h+lg4UlTA+c1VzfCAZRepDZGojgYFLdv5KHTL7b6B3DCc12QE/+ztTOo6GTPahWvVW0A2jwIhxYwXk1DysdXt13q2kfqlXfjmDsABJqm+rtQzjYhXAoYz7/U5lLZXkOjfbcjqrbyucgGj4stzVK+1NwXpaqWDvlBXZ2viuj7svLb9rFh24UT6ApZbC8ofnN6MHgMDAzPoIZzqEhssTekLN6YHlaW8GnMTU6DxHNOBnSdvwFYPlC8acL3j6cMgxmACA1Nal8z42QtxkQ5zV/T2MqvgSpvh2+IktKekJjcsWldPTUztN5TQMxM15hui2SFs7p053MAPUt8HDSLtlkJmFSFgJd6KiXsJw26Qx5+3DSlX9HMjV1BgkRcHn7cjcTAAAZJLSdlvg8FjcAV5vaKS1dRlNTSZNy1oMTLkBa3qHz23aBkvWPkk8WtYPh+GSBfGAkAMvnDPW2eR4S1pMlOmluhAKGwQwAJM9iYiqNatoBAED9DVzUddBnMTGt/24t2occCYvaNjV5FhdFQGh1l7gG1vh9JufW5BzYZcfmO8t1n5zf9L8jt10l/MPKYMaYD/kUhqgs9g5oNlZMVkDJ4OYGIDTolxRdWy0eq+Vxt0BABpcKNXZeN1rrJSwmDIU+eR1rABqbtA1NM3zK2vnRWER5PK9WXHLnSUwa7zpVlm5rTDqUV29BgoCDx2zYPREAJNNY1g0wlCeTYtK00yUvFGBWhtU5Z4YBt3jFECqSxrV1AA2H5cbfUhmdxSVjBy1wHC5kcNFBKxA6S+n6p1A+EdclC3MPzQfMZt+V1jPFk+p1o7UeEC8X6NyV1Q6YyMvDxu/Won3QMCmP1q6BFcpvMzu3JnVH9XZuvrNc9yn5reBxysabN0R2qdEqZxJulngfgqtBADZWUPCmx7EDEJRH2NGg2RG0isQQew+jEYCgxqcarZeXbqKdI42pZBei3coSzlDvQpp3Dl0NNq94ZrGMzlzOwNctdxhSSbVTM7+179SgItw40gCgXp2DYVRJWI25kgOAYwcgFKt3y2oHKrCb2wflt63VOh1Ztct3luu+Ywdgay2pXgO7B8JEe9C2DWhK3okzENcloKHIBldvQYJU/gsrjZLXsRZsrzw+Vfm+fDfPpFI6dgACbuAaJ+9TLcSvQOzuQqvbDX+DHDpT6D0SJctcuayW0fg8Fr29yjLTzfJd4zmGW9ROGtfWCyzWUK2NW4VvUpm5egsSDpX4uw3tgIm11TSQbK6ufcijnFs7dlUtte3bMWqX7yzXfaXyY5bF67zjrgGRc9k8h8ZkDogSMlDuHYjU6o3ic0qS17EG5V0bVZFDByp/tG4SMqMh3202CWsg2hazSCxIEFqfwEnT0JmcYmVOXkTDPCSjIMtlNI3UsgSh1Q1/yAsXFwOoOXFdAlzHCyz7XYrZNZcXo8D69fJCa0rloWrbAbPfGDgOV/ZpS7XtQwFqWGaWHHq0vYr8tlKhflukVvnOct1XML8pxzEqeZ23KH8R7UE2v4dGQEdAO/muB4PBClcrik8iIQroCI4hpKlkPKF+5d9KR62zF4O6iYtuhIZLTR7UUiYmuroQDukrKf9wv6WKVZ18HRzWV0rZxQeM8d0VKjnIIzKRmkpCrBeKz0kDipQ5/SIa1lkvo6n0CqT6FpxsFRhPvgOoizX4woa6NNBvuJbmhM4ndHnIP9wrT/Yuuy6cxcRcBkJnr75+9vZhMCTPwaquHWiGT1tve/sQ7tbO46i+fTCS52S045Rmf/7hLlvfiWZtYKAsnuDqQlTXdinttm6hBeuqaadqlu8s133m+c0TekK/5DKsXuci1yD7bw56iKywN+RsYwnTyQPK+vOKKtZMnxkfgagsm5iNj95YwrSyqH1q6gxSypKO2vhmcW6kvA5RfBJDV/sQDvYiGuvNfiwtnMOole8nz2I0qSx1qY391S3DaAMlNEeOF+d7aMiqWVwSu9C4XnpeimmZK/kei8Isl1F1mWmXhEWzFdhom81iYiAjL3+src83ljBdslKUsDidxEGb8pB5/SxhcfosgCrbAXEe0+teXb0taZZnLnz8MtoHk98z3TSGYGduf+LcCBKIwGdTyGdqKglfrAu+WAS+Yue+QNuVdw7KYdZOWf5y7fKd1bovNXUGUJaDVvObtHAO0wtPIKh9r5fV61zgGohzI8r/qXMhlb/zPTREpu549PEnP3xuMoZn+weq2hHfkUJUHTvKoZNZfnfGLrRrrr3mBYc7/WbLXs5vu46D8h0R2cPYbtocckZEVAFvnzzHZ5tj9omIiMj5OKAhoppTX17IxQCIiIioXDV6Dw0RkRL244ISI89wVSIiIiqfbQOa1NQZdkaIqCwz4yNc0nw3SZ7FqEPmMDDv7SIOyndEtDUYckZERERERI7FAQ0RERERETkWBzRERERERORYHNAQEREREZFjcUBDRERERESOxQENERERERE5Fgc0RERERETkWBzQEBERERGRY93x6ONPfvjcZKzW6SAiIiIiIrLk2f6B7P/vM/uQiLbfc5MxlsM9iteeiIjIOuPDGIacERERERGRY3FAQ0REREREjsUBDRERERERORYHNERERERE5Fgc0BARERERkWNxQENERERERI7FAQ0RERERETkWBzRERERERORYHNAQEREREZFjcUBDRERERESOxQENERERERE5Fgc0RERERETkWBzQEBHtFd4+hGNjCHlrnRAy50YoHEE0FkE03AdPGd/0hMbK/o6zKOdmuKfWCdlae7CM7v68S9thX60TUEue0BiCnTeQGJjETK0TQ2QD/3AEvoYlTI+eRarWiaHtE+hHtLu56Cbi3Agmrm5Tehxk57QDboTCvehYn8fQ6GxNU0KF9GAw1oXGhXMYnUrXOjFEpLFHBjRyJYS5EUzEi2/pH47Ah3kMjbNBob3EehmhHSg+iSHNdSs4sN1Dd33NWK3fa9IOeN1orQfEZKljsqzaztuHcLAFy9NnMJXcvsN6QmMItq7wBhSRDfbIgMZcauoMKxHaVWbGR/i0kagMbAfIullMDPBmJ9FOxDk0RERERETkWDY/oZEfhbuy/84gMQf4ug9hUXmUWzBeOdCPqGY7QN1W0Gwk5f+9dQXTo9fh0x5XzIUK+Icj8Kl/6I4g2p37uy4tuhj0LkRjXQAy+InYjPtM5yQwlpZ2HmOoUbVlhHYv3XVHxnQOiX4bZR6OhTCn/O/NA92a+tKkvgeghP60Y01znFLtgDZc6JqvwG8qUL8nBiYhWmgHjO1Y3m8tNW8tb46T/jdoz5dLKYNm59paWTW0w6Zl2aStLjGHKBuGlziMcLAd2SuyYfjt2etxAQj0oqMekDTtZP71ND+2cTtpYR7LJr8hvw3WzEUqdl4ASAv/gOXWz6CjXv53RzCCaFCfXr38YxY6L4X3gWw+l7dtRzAWQVDNE5rNbC+jpuVOOV8wXMdAP6LdUI6Zf+6M+Sp7Hi4fV/K6Jr2634v8PJNlJe8q6a0vnBbr/cz8fRmvW34+ZJ9vp7JvQKNkWCycw5B6sbOVuFTBDnvga13B9EAu0/uHI/AF++FPajJpfTuCsQNIDIxgIpuOLoRDGYxOpZUQHAsxx0oMel7sdKAf0e4WeLxAStOQeUJeuJBBghmbdjq7ygjtEgI6ghEcnBvB0DigNuq+cB/EbCdD08lR6+BAP6LdEQyiWB4x+Z6mk1J+S2CxHSj1mwrV74B+ZaWC2/XgRHcXWt1uIKmp8719OOkCxLnCgxm5wylhcXpEfzMuGMHgMflczoyPYMZkMGdUsqyWKOvIfqZvq/3DEfhi/UCphREavAgHVnB+YER3bYPhPsDQQW0NPIHl+AiGjB3n+gwSA2eyx5GPPYYjeQM87Xaajud6sQQWoHaotR1fbx8G3T/G1OhfVT+HxtWFaGAJ0+p5CfQj2t2LwUDa/Fomz2I0WWAOjRfYsjIavwIxLx8342A9AOj7Of62ZkCcxwzk/g7mRnLz9MzyFSDnj7YkhgYmc58p/cDcQEtOd16eKSPvCqJ24Qw5D0bDh8uci2SyCIe3D4Pu3BZ5+dDbh3CwF+EQOKjZgWwLOfP75Eymu8jxSUwvVDKYAYBZTBgy50xiCRIO4YhuYquExWlNJZw8i4siILS67VkCMD6PxQ0BHT7tUpFueFoFQLzC+QrkAFtcRshxpIVzmg5PGlPJDFAvd2gAAIEudNRLWIxr6uD4JBIi4PIWWV410CV3WHV19ywmppcquq1lvR2w8JuqMovEggShswt+zacedwsEZHCp0ADP24eTLinvyU5q6kzpc1mR0mXd72uHsLGE85q2emZ8HiKacTLkNu5Qr/4GLppd2/p2+ALaDQVg+YJ+cKDmDcOgaWb8nL6NzZ4z7XZpTI3OQ7R2EgzcCAUMgxkASJ7FhG2dUkOej89jcQNwtVW+xPTWlNFZXDLW/YHjcG1kIG4IOHhM/bAHJ1yAeFk+X6mpM/oBkpqvGgwrK9bfwEXdExU3Ql55YKT7LXGzPGMx7+Y9tSmUB0uRB3Lqb1SPOaEZPMk3K/RpOm9SD9DOYNOARp/5tVKrN6rbdaBfXpM/FkE02A4B2kIHYGNF9+QEAMR1Cag/oH88WrE0UssS4Dqey8BeN1rrJSwmGJJDDrDlZYScRcJy2tCRu3oLkqZule/OJvPuVpfKN/L3TG70JK9jrZokl2oHLPymaqXSK5DQjBPZTpN8Y0tamC94Y8vjboFgUv4AYOaynQMuRcmyrrTVSeOd7Axubph0UI2KXNvGJv1gaG1Vfz0K5g1DG1v4nMlpLJu6epxJ/8Q2eb8rjWvrABoOVzhg3boyKue73N/9bc2QludxaV0zAPMeRiMk3NQt8655R1JMCXMz/r6NW/pBZ6G+klmesZp3za5jMo3lsgeQcn5ydZu/80fOh0tIGG5WyH3a/BsqVHv2hJx5D6MRqK7BytunGnOZQWJgRBeHud1S6RWc6myXG7J48UaKiMjZ3DjSAKBenUNiVOgmlfK9SkKCCtlB7QCSaSwH2tHR1gNgNttZy+t4argahIJ/qwmlrRbU+TdGtl27/M6w1bxh+zk7dgBCXnqcrtIyimzYmdyf6cEJl4TlRBozx7rg65YHlaKhj6PO05GMYYoNhn2vX9cPlI8dgKCEz0WD+Ukp66mt7f3MNKZG00oIa/7cKVeDoITBRZCf9Eojj2gr2TOgSV7HmsUGJrV6wyRzGBV4RFwrybO46IvA19YDICPflVtOc6lPItqF0ri2bjap2uL3rGx69RYkHCqx0Q5rB5DGVLIL0QKdPjPiugQYO321pLbVWzBXzvhERs963rB+zuQ77I2lNrOU15ym0jIKqOeto61HCTdbQSIJIHkFYrcXR7xuHNH2cQL9yhywCuYXXb0FCZI97/exvZ8py77qQJn3FB1uxtD4rJIP+Y4gJ7Ep5Ex5dGfyuM/fZvYIO/9xnfl2enK8cm3MXM7Ij8SVOOCLnBBGRLuUuG4Is632e4HjJiEw+eFgVur4WrYDiF+BiGacCPTA1ymYhG7ppVZvFAwr87c1m4bZbK3CbbUlBa9t6ScghfOUfk5qwXOmhI4Z5YXJGbdLXscaBHki/C5SaRnNhvg1HEaorVlzczaDmxvyeTpY4smjGv5Vkq3nvkjeNQ0rLLOfqc75VsLoipVd2plsGtAoE9ZcXQhrJxUG+nXLCQJQGgQBHQHNpLW87ZT4U928lT6c6qy0GbNeiResJJSG7KT3EBcDoF2oyo4O7SqpqSRENMMXNkwuDvRjsMjEW/Pv9WCw29CRUGPeu/uL1PF2twPWO4GFt5MnVbu8XjQWWwxAFZ9EQhTQEdTH6XtCY/Jd73gld3+rKasF2moA/uF+C53jZviGNcf19iHcbT6Xwyg1dQGLG83wxfTH8Q8rK5+pTxrUhXiC2u2Up3WG3yLPvenS5Emz7WYxMZeB0Nmr/83ePgyq/67RoKeaTnOlZRRQ5oPVt6C1QTtwkc+n0NqCRu1AW5m7oz03/uEui/Mv1cU0eg1pciM0XO6CGMpiAq4uRLV5ED0YVFY+yz51tNTP7MHgsMliT2rYnGk+hD7f0I5i37LN8UkMQXlkF+uVPxPnMTQHRLu1j3tnMTEtr9eejU002W5m/ByOhHvhi0XgA+R1y6eXcKqi2Gk1VECJNy0SwpCaSsIX61KOq12RZRaJBS+CnQLE5E4IfyCyk/UyQnvBLCYGMvLyqtoY8o0lTI+W+h7kpXyz38sgMTAPxLo04UFpTI02YzBb18K0jre3HTCv381WzircDsirrJ0MtkMQk5ZubM2Mj8jvutHNIyj93pfCqiyr8UkMXZWXn8221VDmD5T6rjiP6XWvbt6Gdl5FyXSrcxbU6wnI13RAO7BLxlOQhgAAEhhJREFUY2oU8jLF2e0kLE6fw2JAH7aWmjoD13AEvuycIPPtzH+zhMXps8r/q+27/Pdte9dIfB6L3l5ljkn+e2iKq7SMIjcfDEu6J4TqfGFB1MyFSZ7F6DF9306cG0ECJnNoTKSmziClLCetnbclzo2UP5hPnsVoUlmmuWgetNbPhMswB0lXlgrkV2SQGGCEzk50x6OPP/nhc5MxPNs/sDVHKPQCNQcyXTOeyCZbWg5pR9v9134XvYi42neWOJTZO3yIiGrF2G7a9h6a3U+OmeZiAEREe5f8HheucklEtJNwQGORJ+SFC1wMgIhoz1JftldiMQAiItpe9s2h2aU8oTEEOwVUF/NMRESOlX0fjhz7b/eSx0REVJ2tH9DEJzHk4Mo/NXWGd+KIiKoyi4kBB8+9SJ7F6B4PMcu+r4OIaAdiyBkRERERETkWBzRERERERORYHNAQEREREZFjcUBDRERERESOxQENERERERE5Fgc0RERERETkWBzQEBERERGRY3FAQ0REREREjnXHo48/+eFzk7Fap4OIiIiIiMiSZ/sHsv+/z+xDItp+z03GWA73KF57IiIi64wPYxhyRkREREREjsUBDRERERERORYHNERERERE5Fgc0BARERERkWNxQENERERERI7FAQ0RERERETkWBzRERERERORYHNAQEREREZFjcUBDRERERESOxQENERERERE5Fgc0RERERETkWBzQEBERERGRY239gCbQj2hsDCHvlh+pet4+hGMRRGMRhEPuWqfGdp7QGKKxfvhrnRAiqg1vH8I1qY97MOi0erWK9sA/HEF0uGeLErYzz2VF7YtyjgcDW5WqncE/LOejcs+PJzSGaLgPni1LWa25EQpvZVmhvWRfrROwlTyhMQQ7Bf2H4jyGxmfzN/b2IRxsx9rcCCbiymeBfkS7D2Fx+gymklueXA03QuFedNSb/GljCdOjZ5Gy4Sjy+bmBxMAkZmzYH9WeaZ4HAEjbno/9wxH4XMW2yMh5z6zsUXkC/Yh2NxfdRJwbwcTVbUqP0zFP1kgPBmNdaFw4h9GpdK0TYwv/cAS+hiVMD9jTbhORuR07oPEPR+BDgcFHSXKl6EIGiYEzms66PFCIxrx5nTuPuwUCMri0zY2XJzSGYOuK+SDFZPDlH44gGIvg1C6q8MlumfxBaqAf0WAE0UAlA2K5PKHMzt3M+IgmDbuvo7KjxCcxpLk22U6U8Vo74Um5RnXtQOUstwfePoSDLVje9ptedqusjFMpPTjhAqSFdMk6t1Z5fdfaNWWTrNqFc2jcCIW74NpYwnTek4c0pkZHkBAFdASdGXo1Mz6CobkMhM7eqh/Tp6bOYIhPZ/aG+CSGBuYh1rcjuNMe7yfPYnSAHSkimsXEwAhvehBR2XbfgCbQhY56CYvxwnehZ8bnIaIZJ3dYDLJl8XksbgCuth3WMaUdbhaJBQlwHXfkYJ6IiIjIjM0hZ2qolyqDxFz+Vvlx/pr4fl0seBeisS4YQ2iMsfmi5jG5v60Z2FhCqugjxllcErvga3XDg2b4smkW4ItF4DML2Smg6G8BYDYfRlo4h9G0G+FgO+RvtiMYiyBoeZ5DGqnlJ9DRKXdMs+lU4r6zqSkx30Y3h6bgfCEl/euaR+EljpMNo4sDp4LtECBh7YaAxn9llh6GIm2nVHoFpzrbcSIAIA6YztfSXE9dWeuOINoNQyikSZkv96lf3nyFXPjLpTbN8dV0GeaLiCZhMsZyKTF/5dHXo+bXrVhda33fgDg3n7+Rybyf7P6rbAeKya+ztfvV5udi7YG+3HQEI4gGTfKZoa40y4f25FVjOYRJyHL+NqKxjJmWcRMmbUBi2XzT8q6Ttj1AftujMmmvih4nG350AQjI100S3wFcR03nSVmbX5p/PrXXTnddO3sRjfWaX9sieV0sdCzT61N+XZwLeb+u6QeZfNfs/BX6rUWOnZ/X56HPNib9DYV5GK3ZNfgHLLd+pnTZpF3HvgGNUsFh4RyG1EyTLaiSZsMe+FpXdBPk/MMR+IL98CcnMaPEgpvHkyqZHZoJdoF+RLsjGMQIJuJuHGkAsH69ZLyquC4BrgNw4SwmBmYrnCBf4rdoC+dobjAw6IYcZpMsMYemiNTqDQRxCEe8ADQDwVwlLh87GO4DrOw7fgVidxda3W4gqW2Q3WitB8Skkn7Lx2nBqcAKzg+MaK5TCzxe6AabnpBXnuvEimZ7JK9jLdiOxiY3gDQQ6ELrsqbMKg1EcLgHqfFZZR5Mgfh6kzLvH47AF+sHbAhldHVHgLkRDI3njnUqPIYgVjCt5CtPaAzB7jGErho7Npr5c94+hIO9CIfABg0AIKAjGMFB9dwqZdgX7oOYLcOl6tpC+zb5nqbTIWm38wKJgdw8K921rKodKJG2ev3cSjnPjuHI9BlMJWcttgdpTI2mi8fpu7rkOWu6OrAXg4F07gacTXnVE/LKZUXXge9COJRR9pMbKGjb50GgeBk3k9cGaDuqNzQbVnqdVAVu3MF449L6cVoDT2A5PoIh7ffaegDoB36+TgHSwoXCdZhyDiTt+VSuXXS4GUPjs0hNnUHKyg27InndAwD17QjGDiAxMIKJ7HG01xZV1sUtOBU7gIvq/tX6wOS7+vOnOYdFy5TmM21e194UWC+aQHPqoFrU32wddP8YU6N/xTk0e5BtIWd+n5yxdIU2PonpBcmw5SwmDB3smcQSJLVzXoxZOFl8EgkRcHlrsbRhqd/SjIP1gHhZU1kmz2LC9k6VGyFvMyDOayrvNKbiS5Dq2+GzNNdmFpdEQGh1686jx90CYWMJCXXwYvU49cCy7jrNY3FDQIdPGybnhqdVAMQrnMdTK/FJQ0OrhKU1HC5Znvy+dggbSziv+b6t4ZzafJY8i4siINRDV/5TU0mIEOSBOAB4+3DSBYhzmoY4eRbnFyQInV0MtVNIC+f0ZTiZAerlGw4AKq9rA11y50ZXL85iYnoJ+pYgjalRfWdJvZYHj5VIfLVpM3TSZsbPmdRNdjCcB2OosI15NTV1Rj9AUMtLg3Ln33sYjZCwnNa3z+XPW5PbAH3+kY+fEA2b2tBep9IrkNAsP1HOkifai0l18GL1OAKwfEHTuVXyvcurX8Y8cBwu47kqcA50dWfyLEbnTPZXNQmL0/o8ctHQVldVF9cDy9r9I42pUbPvGs8frJcpbx9Ougy/I3ucSrgRChgGM8AW9a/IKWwa0CgVzOX8R9Sp1Rsm20N5P42yNnuwHYKFhszf1gyIybzRtrguAfUHUHSFWDMbtyosTAYFf0sGNzcAV/cWv/fB60ZrvYTFhOH8J69jDVDuxpc2kzAOTOQBh7SsrNBS1nFu4JruOqWRWjbM3yi0P9p2ufckROQ7rSXLk6FTkSXn+WxHqgrG+kRcl5Cfr/T0A/AcuR6ycNNkTzDprF29BUlTB1da18rfM7lBodQReTTveokqT3FK1Ve2p82sbrJD3rHSuLaO7M0C+/Oq8k4P5Xz6XLljyeffhsVwlDrbrLMvl88cW9prpfOuG5gEjsOlWYGunOOsrRrSHb+ivyFSZH9ZRc6B2f6qtrGSF0Kv/21V1sUm+y/0XeP5s1qm5Lxe+DhlUyNHTPqctHfZE3LmPYxGwLzByttWjb3N5MIN1MelRSnhZPVqjKnRDcgNRi86lEq8WJiVq0GwFJpWVMnfIoclyGFo9sZxepoO5SqiwAEIShhJNJi/rfEZWUHJNJYD7blH8OqdL7XiPlbGcUwGi8b5G4UrOdoyhju12VARcR5DA7Oaz6zsBxDUmHujSkIIbOBqEJQQjQjys6jlkrDHWalri3zP0rVXw9AkLE6PKJ1HJTyn5mnbHnbmVXX+iGQMOWpQt5jFxEBGCSWKwAfrc450jh2A2Vuu8lV6nfLNXM7Alw1XzkUJqGFL1o8j4Wbee5i082nTSKmDg7kiHWXL52CbbFtdbDx/1suUq8HmM3bsAATT60l7mT0DGiUuv7QCjwktUQYrZhMEtXSVX6GNLFRaJVn/Ldn3cSgx1GqMbTXH1j05uXoLEiQbYkX1MctokxuO7D6rPU7yLC76IvC19QDI6H8DbQvdINLbh1OdQmUdG7XM77D3VojrEtBQ/pw00rJY1xb6noUt/cPK0vplX6etT9t2sS2vBvrhc1lZUEaZ9wN1vlIE4aYyb7BdvQUJhyxsWOl1MqGd3wnlqX5c3Wf1x5lJLOFkUOkzHJOf/hifmulYPgfbZAvrYmk9U+Sv1suUnNetHNHiPnfaNaAdwaaQMyW0ymQZYX9b6dAT+SVmpckT+UuEBahzNQKFY3TVxrRopVWhor9FnVNkYX5CMf5heRLeRbUhUsIJ7HjMLcexN+NEwCSM0IbjzFzOyNdQib29yHjX7RPoR7BTMAlN0FLmNZVUuMzXUmr1hn4uCFXEUl1bzvcCx0uHGFnZZivSVqO5fFubV+X6u+CxlTkvZYeGFmwD8uuNSq9TPnlen9Dqht/kqX7Vx0mmsbwhoNXdo8yNmS+eD4q1gyXn32yFKutiszyohHTlhegZWC1TBfO6cpw8eX0kQ362sc9Du4dNAxp1cl0XwtpJZIF+3TKK2Rhi3TwK+S6xkVlBUTvbvrBhsBLo17xkUploVt+OYMwYLyzHGPtcxkmrlbDyW3owOGwyCV4T6lZeo9aDwZi6Uoh2cp1S4ee9bNON0HC5iyXIiwO4us0GfTYcJ35FnmzoPcTFALaRfziStzKROq9B2xB6Qk/ol3AGYN5gFijzAPzDNXxprXpDwzhXwNuHQae+d6oGrNW1Vr/Xg0Hj8szrkqHey98mu11F7YBZ2i5gcaMZPkO7oN4gSlRyh7+ajpVdeVWZ/6SbBzJsWMI5b5/KG+yzd+CtdorN2wCzeqPS62QmlV6R53ea3JCp/jjyfA+h1Vt4bozOLCaUl1vr6j5vH8LdzZAWLlQUwVD5wKzauth4A7gHg8F20/ldRpbLlGleV6JcDPucuZwB6ttxKlQkPxe5Btl8zkHPnmPfss3xSQxBCamK9cqfifMYmgOi3blHgzPj53BEE8eLjSVMTy/hlCFkLTWVhC/WZXgPQC4OWBd3vLGE6VHttzVLb6rHUeiWWbTEfM6IODeCCSu/xWWI7TWGqMXnsejtVY5hCBswflc57pBJJZOaOqO8n0MfRyvOjZQ9cJu5nIHP1WwaDlb9cWaRWPAqTwo4oW9rNOfypEozRyZnFhPTh/H/t3f/Lm2EcRzHP2Zsni6lm8WCZJOW4pI0SekijqVDqJb+CaWDdCpIB+kgQugQumVwCf6Y/BMshaogRxYRQQqG6F/g6WiH3J13yUUvGnK5+H5Ncl7MN8nzg8c8z/f749N1O7s82FDt4F3bGZq6qvtvVH7r3Oe24a2KvjadVKVun3f+xqLi4ju3FngPzrS9wLeB0UUda8Mep1bqb+9xZ9pe+CP5zsdY1SWN+84Wht3Tuu8+80C7Lm3DPgqk3u+NO57dUGek13h6bav7q1p8Fpx7T39/07b8Z2ikJ1Mh/dSLtUsfD2FVlyRny5o7B4SPG3f9nMJeo3O+M32dDKCfz+O2s/Fba9g5uox9d9q+2xaDv61HTlp0n7HYPlJt/3HwvYt8LCBqn6qruqjAGa5W9rYNHb5v22K2VVHt6XevT0nh7Tn8NV/qsLbq/HyfvokkGpuZLV39qvzU5y8LcceCB+KutXdGHf3w4eKzB+LUQx2eEcJcjCRrnzf7VocGiMYpWkYyAADAEHALPHd++wMgKVjQYKDciYNkAACA+Dn/ZLstGQCAoda/MzTADbx6J+qsKgwAwGC5tZD6Vx8OQHxY0GAgrOoSW8wAAEOilTzoIWNexihhyxkAAACAxGJBAwAAACCxUpJk2xcyxsQdCwAAAAB0ZYyRbV8ErqUk6aTRUCYzGUtQAAAAABBFJjOpk0YjcC0lSZZVVz6XjSUoAAAAAIgin8vKsoKZCVOStLO7p7QxKhbysQQGAAAAADcpFvJKG6Od3b3AdS8pwNr6pubnSixqAAAAAAyVYiGv+bmS1tY3O37n1aFpNk+1vFLWx/kPevliSn9393R8/E/n5+cDDRYAAAAAjDHKZCaVz2WVNkbLK2U1m6cd943NzJau2i++zmU1Pf1KzycmlE4/GkjAAAAAAOCy7QudNBqyrHrHNjO/0AUNAAAAACQBhTUBAAAAJBYLGgAAAACJ9R9sz9kwgaTryQAAAABJRU5ErkJggg==;" vertex="1" parent="WIyWlLk6GJQsqaUBKTNV-1">
          <mxGeometry x="822.17" y="430" width="772.68" height="238.4" as="geometry" />
        </mxCell>
        <mxCell id="yhk8o4lR-U0t_7d8vfAA-17" value="" style="shape=image;verticalLabelPosition=bottom;labelBackgroundColor=default;verticalAlign=top;aspect=fixed;imageAspect=0;image=data:image/png,iVBORw0KGgoAAAANSUhEUgAAAzkAAACsCAYAAABYUWJ0AAAgAElEQVR4nO3dfXAb550f8K8VaZwlJZmiackiZIlnUaU4jFIYQSRXFgvo/DIJU6iIapvx4cbhjXGt2wxnwpdcww5L53Sc492ZL3fDesaTYeYUT3g52R0FZ/aYNEoacug4kYMiOCsMxZqyaVmgLJkhqRcSp1K1+8fuAvsKLN5J6PuZ8YwFLnafffZ5nn2e3d/z4K7HnnjyExARERERERWJDYVOABERERERUTZxkENEREREREWFgxwiIiIiIioqHOQQEREREdGa9ulPfxp33XWX5e03Wtno8OGH8TnHQ9j9wAMoKRHSThwRpea992bxe79XVehkEBERERXUJ598gmg0ig8uRRAO/xMm3ngTn3xivn7aXYlWV9u1y4Y//IOv4J9v3cLU1BQuXYpgJRrNScKJSK+99evo7f/rQieDiIiIqOA2bNiAPXt247Of+QwEQcCrr53GhXffNd7WbCe7dtnwzT9pw/npafzD6yP4P+/McIBDREREREQF8fHHH+O992bxDyP/A+d+M4n/+Lwfex/8PcNtTQc5f/gHX8GPz/wE//T2uZwllIiIiIiIKFWTv/0t/tfYOJ5+6t8ZztUxHOQcPvwwbt26hXO/mcx5AomIiIiIiFI1NXUe0WgU/7r+Ed3fDAc5zs89hN9OTeU8YUREREREROl6+ze/gd3+L3WfGw5yHtj1AC5diuQ8UUREREREROmanX0fD+yy6T43HOSUlAhcZICIiIiIiNa0Tz75BL/4xVnd5/wxUCIiIiIiWrd+//fdus84yCEiIiIioqLCQQ4RERERERUVDnKIiIiIiKiocJBDRERERERFhYMcIiIiIiIqKkU6yHGhtb8X3375z9D6aK6P9TT+9OVefPvlb+DZXB+K6I5gw9HGL+PonuzuteLzX8AznodQkd3dEhER0Rq0MVc7frzlz/BUjSD+Y2UGr7W+jDNGG973ZXT+6SPYvQEAruCN51/EK7lKFNEdSFUXFVZXbmD+gym8MfoTnJleKEDKjB38T34889ktwOd3AO0v42dZ2asHz/+RC7s3APvv+TVe+F5WdkpERERrVM4GOSolVfhcA3BmVP+n/cdqpQFOeo40Po/H7TaUfPgTfONvxtPfEVGx+/g2Vlel/9+wEZtKtmBnzUE8VePAkbOnMPi3v8Z8QRMoun59BavYAlxfwOWUv12Nx//4izhaY8Pq29/EC7EnJtdx7SaAzTcwn/pOiYiIaJ3J+SBn9dZtbLp7Ix448AVg9Eeav1bjyJ5yALexuroRmzalvv8Ha6uxcxuwcjUbqSUqYldD+Nq3Xo39s6LGBW/jYzhYKWDnoeN4NvI++n9c+Dc657/3Ir6W9psWGw7U7kFFCTQDpHEM/gkfghAREd0pcj4nZ9PN65gHsGlPLZ65T/PHwy7UbAfw4e9wLY0BDhGlb356HEMn/g5vXQUAAfuPfBH7C50oIiIioizIfbja6vs490E5jj5gw/4vlgOvxJ8UP36oCvcAuDg1h03379B/975H4Pc/hs88sAUlGwB8fBsrH57DP3x3GD+rfh5//VQ1SqRNS2o8+PbLHuDDt/Dvv3Ulvo9PPYRnOo7jyAMCNm0AcPMK3hr5DobG4+mocH0Z/icceGCbtM3Ht7GyOIufB17Fa79SPNne8wj8X/0CHrpf2m5lAed+9H728ooo76Yw9Kv38dCX9mDT9j04ch9w/iPxLweOP4cnD+/Dzs1iM7G6soALv/ghXnlNDGur+LwHz3zpIPZvV9Sbd87g6wM/lfZtw9E/ehoNB3bgnhKpqVmN4t2f/Vf8xWkXWvs92F8SxfnTP8LKYQ8c92/E5Tfb8QK+gW8f3iHV5VchLiQibfva3+GDz34Z7n3lsTp4/o0foP/0FPCs9D3JzsO9+PZhYGV6BF8fgGIf/xX9chLvewTPfNWFQ3vKUSI9aNGep+r4p0/j8ufi7cnqzQjeeGUA3387h5eIiIiIUpaH1dVWcWYmAgDYWa18UvwoPlclALfex29Oreq/dp8Lrf/5yzi4ZwuweAWX567g8k2gpPIhPPO153Dk5gI+nLuCa7ek7W8uiNt8+DvFTjZh9xONOHr/bcx/uICVjwFs3oGD//ZpPC5tUfHE8+h85hE8eK+ATSviPq6tbkTJvdV4/I+a8fxheV8utDZ/GQcrBWzCbVz78Aou39qKA54DXK2J1rdfLuAaAEDA1s+KHx149ht4/ola7Lw7KtaruQWsfroc+x9txPNPlQP3efD8sy4cuF8Abkr18xpQcs+90k5r8WxXM545ZMM9JRuxKtXha6ubIGxWH/6ew1+A435rz1sqfv+reHyfgGsfSnW/pBz7n/gDtD5RDsxfxeU5qZ4DsWN++NF1451JbczR6nKUfCqK+bkruLx4G5tKyrH/UR/+8/MHNV+Q2pP7orH2ZNNmG47+4XM4Yin1RERElC95WXhg/tTbePewDQ9u3wN3LXB+CsBTn8WDdwOrM79FAPfiIc13Hv/Dx7B/MzB/9jv4L387JX16EM1/9TQObN2HI9u/ib84ATz7rV4cuR9YifwcLwzIMfeu2OmV3DqHwfbv4hykAc3xapSU2HDgKHDmZ4/C/yXxbdDK9Ai6B8alJ7e1ePZbX8WR+7fAcfTLqHjzB6h47hHs3wzgVgQ/+4785LYcB//oefgPlec0/4hy6qNVqB4z1D6NJx/egU0rM3it52Wckd7sVDS24M+P2rDb7sH+BQEVmwCszCDwJ/LKieU4+HnxTUrFU1/AocqNwMc3cC4wiEHTuT4Cdt67gNCpl/Hyz8SHIeZrsQuowDkMvfBdvPUREK+nAvYffgwV3/ouXhiV37oA81MvKhYecOn21vDVL4p1+uYMXvvL+HkeePYbeP7wDtzz2UfwzH1v4fsfyd/YiJKVX2OwaxjnAODwc3jx2Vrcs3UXHjoEvHHWPIuJiIgov/Kzuhp+iv8968aDNeXY++hBYGoGz/wLG4AbOP/mTwE8rdn+ERywiUveVhx6Dt8+pN3fRgjbrB358pQ4wAGA+R/P4sMvVePBuyG+wzq6D/ffDeDjCH4eG+AAwBReeXMWjuPVKLFV4SgAwSYOZK5NjylCUxbw1t/O4EuHDmKnteQQrT21AsRIrdtYvQngc3uwcwOAkmo89We9eEq7vSDggbkbWAFQUlKNL33reex88ycY/fEM3pLCO4/+Cxs2Abj22x8mGOCIrk3/JD7ASeJiWB7gAMAUXvnfERz60h5s2lqOhwDjZeoNPYL90tuji2fjAxwAOPfKW7hg92B/iQ173QBek/9yG+/+ajjWnuDNGVx+shb3lGzEJs3bKSIiIiqsPA1ygDNnZ/FETS3uedCBx2v34cADAK5fwtk3TZK1AQBu4/JvzuGDZf0W8zNWjhrFtcvqf//f/6f4pxys989RLGm/+uMFXDsOlGzYCEGx7crNX1s5MNG6UfH57WLI5a0FfHAWQI30h+vv460pgwHKP1/CB1Pj+P6Pt+AZVzUq7q/GkePVOPKlBZz7n9/F4GgEgjS/ZeX6W0mOHsXl/5Nsm/i2K9rkrIhvoVJft0RuYwz2iXHMX/cAJcAm1c8LreL/rqR8ICIiIiqAvA1y8OY4pr9Qi4PbbfjcsSgqIK7ulLh7sxGrH/0QQ6dyvKztpwWUaT97ohz3AMCtf8Z1AFuljzfdXQ1AMcKKPQUnWofuc+FZuxhitjL7NgKqP67g/N8O4w2z755+GedOl2P/Ey48/rADByrLceDf/AGefe/F2CYlmx8CkOTBwP9L/GeVT6n/WWHbIi4+8jFwO4XdxAko0UWbulCxFQBuI7qY1k6JiIiowPKw8IBsBoGZKwAEPPh75QCu4PzrZq9jxvGBtH7A7s8/jceVS0/veRTNz3uyk6SfvoMPbwHYYMMjLS7FAgK1ePZwFUoArF6dxRsALl+LAgAqah9TpKccj3+hmgsP0Lq0+/CX8c1viPNXcHMG//g9aU7btLQQwdZ9ePzZWsU3ynHwmefgPwrg0UfRsAcAFnD+xz/A4IkxvHsLwIatqKgE3vpAfDBxT+1j8H8+W3PWBOw9/DQOyP+8z4VnPysO0FY/fAc/02y96VOJjjuO83PisGj3oedVbcyBZw9ibwmA1Su48MssJZ2IiIjyKn9vcgDM/3AGFx/egd0bAHwwg9GPzLd9beQtfOaPD2Ln5mo89ad/hqMfXsfqhhJUbN+CTVfj738uX4sC9wsoqfkiXvzWQSD6Pr7xl1fMd6zyUwR+5UDzkR0oqfHgz3sfweXrqyi5dwfuuRvA6hWcHRnBPIAzPzqHIw8exM6SeHqwdQcqEBXnJqSfLUT5sd2Bl/7GIf7/BsWP715/H2e+p5iXcvYH+PHhKjxVI2Dn4efwUu0VzEeBTVt3oGJzFOdfA2BzwPvvHsfRq7+TVi28FzvvBnDrKt59Gzj/9s9xvsaD/Vt34OBz/wWfOX4F16JASdm9WAl/U7EgQCpuA9sOorm3Wl9P/1FeE/pcLNSs4vMt+PMHolhd+Dle+G/6vY3+YwiH/pOmjRHuxc5tGwHcxuVf/QivJWijiIiIaO3K45scAB/9AKF3bwO4jXff/oFior+Bt1/F4CvjOP+7KFYhoKJyB3ZuF7B6LYK3xn8e2+zM936Cc7+7DWAj7rl/B0o2GCxHncD5772Ivzz1a1xcjAKby7Gzcgfu2RTFtfd/je/3vohX5EUGpl7F4H//NS7fvA1sENNTcmsGZ145Jy2/S7TGbdiITXdL/33qNlYWr+Dcz15F958M4jXV77ws4MzAy/j+2StYWQU2bduBnZU7UHF3FJd/8xbeeBtAZA6XV4B77hf/tnMzsPLhFM58ZxCBjwB8NI7+F4dxZnoBK6tAibSPEkQxn7DiJ7KKC//zhzh3a6tYT+8GVn43gzOvfAevyAswYgGvnP45Lt6EVE/LUfKxSSDb1Kt4ofcHeOv9G1iR25htG7GyGMFbpwbxQnynREREtM7c9dgTT36i/fClwQH09v91IdJDRArtrV9nXVT9GKjihzyJiIiIIPaXvtbcovosv29yiIiIiIiIcoyDHCIiIiIiKioc5BARERERUVHJ6+pqRESpG0d/63ihE0FERETrCN/kEBERERFRUeEgh4iIiIiIigoHOUREREREVFQ4yCEiIiIioqLCQQ4RERERERUVDnKIiIiIiKiocJBDRERERERFhYMcIiIiIiIqKqY/Btre+vV8poOIDLz33izrIhEREVEC7703q/vMdJDzteaWnCaGiJJ7aXCAdZGIiIgogZcGB3SfMVyNiIiIiIiKCgc5RERERERUVDjIISIiIiKiosJBDhERERERFRUOcoiIiIiIqKhwkENEREREREWFgxwiIiIiIioqHOQQEREREVFR4SCHiIiIiIiKCgc5RERERERUVDjIISIiIiKiosJBDhERERERFZWNhU4AEVGhOfxd8FVdxHDnSYQKnZg7iKe9B24bAMxhrGUQI4VOkBXeZvS5tmFq+ASGgoVOjJkGtA7Uo3zyFDqHwok3dTah21cDAUDUyvZEROtE7gY53mb0uSr1n0cm0NY7mqODptCw54yYBpvu80LdxHOXJw5/F3x1wNT5RdTur0RkvAP9gawegrLhjq2LFLf2roenvQfusmkMt3BgWTDSAGeBbXf25SVv10C9ZhmiNSzHb3KimqddYoXs696+Rp6YiulBDiqn9omYp70H7oEu7FjTT/+0EuSPswnH6xC/vt5m9Lma4Qmsk6exd5y1XhelOoJcDrzye5zikYt2sgH7bEB0Mrwmyt6dymHfDQFzeIed07XF2YRu327Mrqv+AtHak+dwtVH0j+9Fn2s3HE4glPXKO4r+lrXZcRnpncC+gXpU2e1AMJ9PXHKTJx53DYTIRLwBDkxgytmIQ347RtbIk2JK5M6ti3cmXg+ivAqeRGfOByhroF7n5TyJ0pP/hQcu3UA07wddC+ZwfbnQacgW8SlsZEbZuIYRmo1CqLLDUbB0UUru2LpIRERExS7/Cw/s2gIBi7iiGvlr57EYzV8x2GYccKsmgBrFp+rnyETGO/BOtTzhFYCrB30uaOYoJElT7HXy64C3EbWlcoia2YlXYmspsDCvfssRn3gbT5s2JESc+yIoPlGnRfv3qMH5K/MkFq4ztj024RQAsDwdC11SpUubP969sGEOY5p0hsIXcbwuV28GKOvSrotG5XYCcCnLmfW62A/lnKF69A3Ua46bbl3UvFH0mh8nYnb+hvOWrOWRUmxhgwBw3FcDQRU+aG1/ydqBxG1JDtoBU/rrrLweqvOoa0TfQGPSCe/Jy5tEN/9MG6ZpLY3m24n3HS3dtVHkoSGDeXJG1wvjHRirUO7b+HwM8ych5XkJcA/0wK0qT3b4u8W6FN+p5rqb1buwXfe58vvqvDK7PkoGaUmWv1CU75m9Ul6n0KZYygMr7ZJyrorZNVWWPfUxa3096PMlWhDCer3WHWPJoB7rFtWwWg4M5uQkqYuJ+y1E2ZHfQY6zCd2uSkQnT+kaAkyeQpuykg40A3KDYbBNvAIlehYdbwCU32sFMNLbgRGzWHMraZJUeY9hNtCBtlgjbTDBG3b4u+thW57GcED5WSNqoZh4621Gn6sHrYinR7x5RTE13BFrHDztzbE9i3+fw1jLCUVeNaLbj8QNRpkT3d6LON3SId0oxLzwdTcBnScT5o+jYhsQCeo7dcGrWPDVYOsuABzkrG3p1kWjcqu42ZvXRvO6iMAg2gImc2UyqosaCY7jAIDSGvgGtmCspQP9sWPXo9s/F69LKaRHbzeOq+qc9f0lbgestSWGMmgHDEntclR5naU2qa+9Em29owgNnUDI8oRp6+XNKI8c/i74fD1o3aVIu4U0xj9Lft8RO2uL8TYYdvjb7YnPyQmMtXSoH1S5uuC/pO7w21w9OD55Cm0tirLha4YnmGl9FMOc4mnXd86FyATaOtUdeqM5fLp657QDEFDrO4apYelzbzP6XPXo7nZCWAqiTQqx0p+PAW89qmYV10Auo+0NCCWbV1fmRHd1EG0tg/HPLNU5KQ+XNfnanso+jJU7u3B89vXYNRXzJn7PHuoMZz4nx1aPPu80huV6LR2j1RtGfyCM0Owx1NbthQdQpdVTXQksT4sPKVMsB0ryAEY5cHf4m2NRHmn3W4hSlONwNUF8EjEg/ecFTrd0qCfku2sgLE/jtOKzkd4JRFCJQ357fJvIhLrwBwYxPJkk2Ma5HeWIYjas/l6yG7WVNMnnh9nXDRshoa4xft4Dx4BAB9qUjYK3HrWlUUwFFJ8FBjEWAWzOJrEx8DZLN211QzfSGx/8HbIBkXFFoxo8idOTUQh19fAkOsnSRZxVNVKj6B+eRrS0Bm5v4vyxlQkmfxFD8sorEt3gqTCyUxfFcjuHMaOyk+jwBayL1kUxNayuS2cjUIVgWk+PgVJgNqDuGFjL8yTtgJW2xDRN6bcDenb4nZX6J7LBk+gcnwNsTvidKe7SanlzNuGQQR6Fhk5o8sF6Gq3ed2xlAhC5oOgshjHUm+gtQxhDneqOcGgoiAgE8QGRkub4I2PTiKIS++Rrk259TEA+b/VTfrNyYV7vopOvq+dsLgNC6SLGFPvVnY+RwKCm4zuKsckoULY9eWh06SLOagZClvoc7dIAR5uv0r4yaQeEpaBhmUp6z06JpkxI+W+rbgAgRl3o810KQw9Kb3FTKgcKziYc1wxwACA0NCiWh0z6LUQpyvEgR3yq1tbSgbbxOaC0BsdVDYC6UsWJnWWhrDK2TXRpTrf30Pxi4sMHr2IBAmp9zSlUHCtpitOGn8mik6fE826ZQAQCar3qzoanuhKIBHU3h8hSFCjdApu8zfJF09Avh303hOVpfdjY/CKAbdiRqEOhuilLglexAGuDFKPrAYRxZSnpV6kgslEX5TJ5QxHeJZHKjqkC1kXLDOqasj6mmh49fWig9Tw3bwestCWmMmwHVJx2VJVqBrKywAVEIIgLr6TAankT20LjPBqZmQNKxTBa62k0mnco0t53IktRwFaP7mSDXC1nE7pjD8LENy/aPNcdX3NtxGtvfg1TZ37eCIYxq+goy4zrnTaPpXuD0bW0yNMef0jjqxOSl20YHS+FPses2cp/mbUD5mUqyT07FboyIeW/PDCUHuCoHoJIYejvSKF1qZYDWbIV+zLqtxClKH/haoFBDFd0wVd3DH5nWBrRb0c5AEGO9dZaim+TXgdmFP0tc/B3N0oxx8ZzXlSspCkmiuuXLKRhWIyNPe63IyTFxO4oA1AqzwvQWoxvs3TV9ImgrUyQQmx64NP9lVPKyUS6ddFCmTS3FupihlJKjwFthysreW6lLcmTXVtg9o43PdbLm/nbZQ2raZTvOxY2DQ2dQEgKB+obaLQwX0QOJ1OG1knhe5ZOQibnT0pfSiyF8xblvt7F5m5EJmJhbvJvtCWlLTvZ6HNk2g6sESMzc3DHVtcU33AiMiFFiaRaDuJsZQKwfNF0MMt+C+VTXufkhIaCcA/Uo9bdAARHY3M4EsZ6O5syPKoU4wo57rkH3RUJ4sCtpClVwZM46+6Bu64eHoQxgjCuLJlM/FPwLDWiNsFuI0tRoCz7v9JuZUApPq3SbpeDmy7lRFp1EZmGIa6BupiJbKfH4v6uJGwHrLUl6Uj5wdKlG4hiW1bTYJXYFlrY0Goa5WtjlTTfKzZfZKAZNpO5GcahUOkIJykbaUj1vHPNJPQpbZbqXEPiPMhZu6R905tjgQuIuKSftYD4hnMqILUhGZSDZHUxV/0WIiN5XkJ6FP3jc4CtHq1eQH69a/baE0DCV6Oe6mThIWpyfHbi18kW0pQGOV7X3S7uVwxx2JswdCfZNqH5xXgYRqqM9uvdC5uFJ3ORpcRPWzIOG6I8SKMuSsuEm5cd6wpZF9OX7fRY21+ydsBKW2Iqg3ZARwpJNAxJk/ZpGCZmynp5S9QWqsL9LKfR/Nokvu/I82FSDLtJsf7ITK99mvtLWCaddlSVmoQw5ZUdjqp03xlaqXPJtsmsHTAtUxmE8qVHnNskVNnh0YV7pl8OkvVLMuq3EKUo/7+TI0+AczbBgTCGgnOG8cyedjl232Qbb7NqyUxDzia0Gsw7iM8nMarIVtKUDmmypDSxVZxoWgl3t2ZisLdZ6nQCoaHXMbVcCfeA+rixdAQmMLVsMM9Bd95G4gMu+TvdLm1sv3FDF5pfNL6xSvHuOQ8bouxIuS6aldsGtLqSPHBIWheNOmy5qYvpDwqynR6reZ64HbDSlphLvx3QEwfOQl2j+nxiK/mlvjCE5fIWGMRYRECtr0u1uIHD3yUu2hBblMFqGq3fd7TXXpyTYP5UXpwrpezkWag/JtKuj6bCGApMI2qrR5+yXKABrdJKW3l9qyrNLVKWPYf/mHpJ45RY7HOY5UF7g8V9JBB7sCSfTxfc2jk+iQbjWRQKXxQXEagTNHOMMigHpnWxWfx3Rv0WotTk/3dyEMZQsB59LnmOyiDaLknLdw40xraKTp5Cp/yPwCDaoIh5BsT43HGgz5U49KC8zmC/sfAYOS1SPLu8kkjAQprSEAsR8jbBETwZm6Ogik1dnsZw7CBieI+4NKU4jyF27on+jjmMtSR5YhqZwPCSUxXHr1pSVd6/Yf6Ir7n3eQEol5ZOMPmX1qI06iJG0d8CKSRHLrdzGGuZAJLMKUhcF+P1Q/WbHTmoi0bHsfwENdvpsbS/ZO3AqIW2xEQm7UAK55N+uJH18jbS24GItGR0XywTDH7/xGoaLd93Kg3aX/NlhENDJ2Br74E7lk5r9cdY+vXRVPAkOoPSUsEJy0U+yHNa42mJTp7C8OQxa3NyjFipcyZ5EBnvsL4PE5HxU7juVM7nUS97LhrF2KQTPou/I5W2YBiz3hrUlhosFJBBOTCsi8vTGB4CMuq3EKXorseeePIT7YcvDQ7ga80thUhParzN6HMh6Q/xkZrh75FkvA/x9xqqZvmDXtm0bupiKr+lQmtCNtqBwmF5o/WGZZYol4z6S/kPV8uiwsSxEiD9voHydy+k32s4ywHOnSndeRxE6WB5IyKiJNbFIMfh79LFlutjrSmvgidxehJi3O1/EH8FXPXjXlScnE3obm/Qf5bmnAuihFjeiIgoTQWYk5O60PwifLo16RPHPVPuhYZOcIB5pwlexYJP/5ssWVvilUiJ5Y2IiNK0vufkEBU51kUiIiKixIpuTg4REREREZEWBzlERERERFRUOMghIiIiIqKiwkEOEREREREVFQ5yiIiIiIioqHCQQ0RERERERYWDHCIiIiIiKioc5BARERERUVHZaPaHlwYH8pkOIjLBukhERESUGtNBDn9lnajwjH7Bl4iIiIjijB4IM1yNiIiIiIiKCgc5RERERERUVDjIISIiIiKiosJBDhERERERFRUOcoiIiIiIqKhwkENEREREREWFgxwiIiIiIioqHOQQEREREVFR4SCHiIiIiIiKCgc5RERERERUVDjIISIiIiKiosJBDhERERERFZWNhU7AnakBrQP1wHgH+gOFTgsROfxd8FVdxHDnSYTyfXBnE7p9uzE7fAJDwXwfvHh42nvgtgHAHMZaBjFS6ARZ4W1Gn2sbptb0tRfvV+WTp9A5FE68qbMJ3b4aCACiVrYnIsqh3A1yvM3oc1XqP49MoK13NEcHTaExzrH4DTcu9UZ/7ZxPrjj8XfDVAVPnF1G7vxIRDvyy7w6vi0VD6kAusI7oeNp74C6bxnBLAQapJGL5JJU1cA9gmbzj5fhNTlTzhEos9H3d2wvzxFQnF29UxH3aIhNoa1F0IL3N6K7I1jHWkwR57GzC8TrEy4i3GX2uZngC6+Qp7Lqy1uui1FFFLgde+T0OGclNm7vPBkQnw2uiHN+pHPbdEDCHd9iZJKI1Is/haqPoH9+LPtduOJxAKOuv50fR31LYjovD74QNcxjTdqACg+hMeW+FP59c8rhrIEQm4h3vwASmnI045LdjhM6XtosAAB4BSURBVE//c6z462LRCZ5E55oNaSIiUloD9wC2mXe8/C88cOkGonk/aP7YygRg+QYihU7Imic+fY3MKBvBMEKzUQhVdjgKlq47SJHXRSIiIrpz5X/hgV1bIGARV1SjaynEK/Zvo4mjBtuMA27VpE2jGFDt94DIeAfeqVbMmXH1oM8FzRyFJGmKTRZ+HfA2orZUmnMzMwe3qwZuLxCy8NpenJMiSP8yDilSnk8s1GZse2yCJwBgeVoVdhSbSB0Ajiu2E+e82OHvFtNs9N3Uzv8ErriV84/i26nmJWnz2LtXfOOlyaNQ+CKO1+Xq7QKppF0X9XPOIuMTgEtZVq3XxX4o5wzVo2+gXnPcNOui9m2g1/w48YcSmmMZzluylkdqmjoH4zSq89XoPJXx5fHQr7EKZTui33es3ZjZq8gDub2xcM6KCeUAzNubzqtwm+wrYXtgSl9mlOemaj/rGtE30Jh07mPysivRzWXTts/W0mi+nXgP01LfE2DSPisYzLlTz200KyfG52OYPwkpz0uAe6AHblXZ1Zd93XU3q8Nhu+5z5fcT3z+NGKQljbKcUIK6Iuat8X3eJu3f6j1epr9eimtv4T4tS1rukrQBetb7L/H6Il2fJYO81i3SYbVcGczJSVa3Uz5XWqvyO8hxNqHbVYno5CndjRuTp9CmrAgDzYBcCQ22iRfSRM+i45VM+b1WACO9HRgxiw+3kiZJlfcYZgMdaIs1WGGMVffA7epBnzNxxbC5enB88hTaWhTH8DXDE0zSYSpzott7EadbOqR9i+fh624ClMcrrYHPO41haTtPew/cri50OwUsBDvQpugo+dobEJIbB8vnL6DW14Ot4x1o6wXkRsfd3YRI58mEeeyo2AZEgvrzDF7Fgq8GW3cB4CAnd9Kti/KNBcpJ3vFOjnltNK+LCAyiLWAyVyajuqiR4DgOQKwvA1sw1tKB/tix69Htn4t3WFNIT5zixt0Zr2OtduU2ietSoptrubMLx2dfj7UjYtvYiG4/1B1tWz36MIG2lsF4mrxd6PYBs8Md6A+anLPU1sY7T+J3DdubBPmXsM01Ih03qiwzziZ0+xrR116Jtt5RhIZOIGR5grP1shvvjHbEOj4Ofxd8vh607lKk3UIa458lv4eJHc1FjLWciNe3dlVB0Z+TExhr6YiVPYe/Cz5XF/yX1B3+5PebdOu2GJYUT7t+YC5EFGU/wXxAXR122iHWjWOYGpY+9zajz1WP7m4nhKVgbO6rpfuntx5Vs4prYHT/A6y1BYb7T1xXRnpPYUd3I2rdDUBQTnc9bMvTGFYe39I93uB6eZvR5+pBK5T1K3nbkrTcWW0DrLDVo0/RL5Hbq1ZvGP2BMEKzx1BbtxceQHUdPdWVwPK0+PAzxXKlJA/mlINBh785Hj2SzXOlgstxuJpYufoGpP+8wOmWDvUTRncNhOVpnFZ8NtI7gQgqcchvj28TmVA3LoFBDE8mCbZxbkc5opgNq7+X7OZqJU3y+WH2dd2To5HeDrSNz0kNZQ/6upuMw6805zQyNo0oKrHPmzh9KF3EWVVlG0X/8DSipeIbpLgopgLx7cT9CxCWJhR5MIqxyShgExuV1M5ffAIT31cYQ8E5oFR8E5OIrUww+cscri8D5RWJbuyUuuzURXjrUVs6hzGj8pfo8AWqi6mJYmpY0UEKnsTZCFThk6nUjbhKbC3VhGYGT6Jf01lKty4JS0HDtlGoq4/VaZFyrqC8fwGYVOSb7pzt8DsrgciEOm0Bk/YmSf5ZJx5X90YkeBKd43OAzQl/knzRsVp2nU04pHvaDoSGTmAsAticTaq8sZJGq/cwW5kARC4oOndhDPUm6liFMdSp7tSHhoKIQBAfFCklu9+kW7cTkM9b/VTe7H5lXoejyjIamMDUMiCULqrmvlq6fwYGNYMU6f5Xtl1TRtMpy1bqivRvWz1avYiXtYDmGlu5x3vrUVuq+W5gUFNGpbNJ0rYkLneptAFWaMqYdD1t1Q0AxGgO/XWUwtuD0huxlMqVgrMJxzUDHAAIDQ3G3w5l9Vyp0HI8yBGfhLW1xDv9x1UdAXXBjRM7ukJZZWyb6NKcbu+h+cXEhw9exQIE1PqaNTf7RKykKW5h3uSpTmBQdd6+AX0a1PNR5PRa6OCrGqME312+qA75krYxysu4VM5f02kFpHkeBjdYA8bpCOPKUvLvUqqyURflp2kGc86ksmWqkHXRKm19ARBZigKlW6SQldTSo/27zdWVoGOefl3StSOQ28Zt2KE8nrbdkOZkJcw3px1VpVFMjVloq5LmXwqk4+ryBAACFxCBgCp7ag9CrJZdh303BINzAYCRGUXn0HIajeYfirT3sMhSFLDVo9t0wGzC2YRu+QGG9OZFex9Jdr/xVFcmvLekzvy8EQxjVtGxlRmXRW0eS/eIDOa+etrjD3x8dYK+jKZTlq3WleBJnJ6MwuZsRqu3Rv2QIXaw5Pd48XoFdd/VpzN525Kw3KXSBlihOzfpesoDTWlAqRqoSeHt70jRJ6mWK1nSFQCzfa5UcPkLVwsMYriiC766Y/A7w2LFdG5HOQBBjs/WWopvk14HZhT9LXPiq9mBHrihjVU2YCVNMVFcv5QkCYFBtAXE16ju9gaMrPVla1M6f1qX0q2LsGNHGYClq2m8sl8DdTFTadeNMIY6w1I4TQ/6fOvohxJ3bYEgvwX06f+cs4Urdm2B2bve9Fgvu+ZvmTWsplG+h1nYNDR0AiEpfKdvoNHyvAcblKF1UviepZOQyfmT0pcSS+G8Rbmvw7F5J4qfeJB/qy1jKdSV0NDrcMihZmm1A9L1KpXnFmoleQCskbDcFaANGJmZgzu28mf87Yo4fSHVchUnLgx10XxwXKj2jnImr3NyQkNBuAfq4/Go0vyLhPHZzqYMjyp2MAA5VrkH3RUJOhhW0pSyUYxNOuEziDPNtoyfZufk/I2JT7616c3BzZZ00qqLyPQp1lqoixnIMD3inBTEYtBVczZyQruoRBou3UAUUcwmndCdZZduIIpteTxgXGQpCpRZ2NBqGuVyY5U0dyw2D2OgGTaT+V6x+RwZzxUI48pSI2oz2odGquedayahSlmTQl1x+I+hFlFEpTfqoRQGOvI9/sqSyQT9dJmVu0K0AYELiLjqpTeh0tuVgHSeGZSrpHW7UO0d5Uyel5AeRf/4HCDHo8phHCavFgEkfP3oqTYLDzEmx1Sbh5VYTFO6srW0tGL+TIx3L2xZeRKWw/NXiCwlfiaS8WCNkkijLkpLfJuXP+sKXhfTkqX0yHMxdPMA0mPaNmajvZHCDFMNDctYouNKbZ1hmJgp62U3NL9oOhdKzFcplMlyGs3LTeJ7mDwfRhN2mEyKdVEmhixlXrfjEtQXpx1V2nlqBWGHoypL7wyt1hV5sBU8gc7xOQh1x/RhrBbu8abXK2OacleQNkCcKyVU2eHRhY+mX64S1W0AhWvvKGfy/zs58iQzZxMc8gQ4g1hQT7scu2+yjbdZtWyiIWcTWg3mHcTnghhVFitpMudp75E6jQreZnE1D10sf7oq4W5XpFlaKcsoPjd1mZ2/nnGDFJpfNG6gpZjYnIceURp1UZ7UXAm3ajGNBrS6kjxwSFoXjW7a2S6LZsexKt30NKBVWV/ljlVaYX8GYgNVkcPfBbfh3KF0SJ2NukZNu2aHv91kQZWErA4UxUG4UNeozuvYqoCpLzJhuewGBjEWEVDrU8+hEvNVOdHbahqt38O05UicQ2D+Rk6cf6HstFmoiybSrtum4pPs+1TlvwGt0spYeX1DK82rUJY9h/+YegnijFipK3b4vYpzl8uaV1uXkt/jja8XxFUrU5wgn7jcZbsNsCYUvihO9tf1nTIoV6Z1u1n6d2HOlXIn/7+TgzCGgvXoc8mvaQfRdklacnOgMbZVdPIUOuV/BAbRBkW8KCDG1I4Dfa7E4QLldQb7jb0altMixbXKq3UELKQpAZsuZl+9FGnGIhMYXnKqYnFVS5hmKsPzVzPLY/F19D4vAOXS0gkm/VK2pVEXMYr+FkjhDD0Qw5bnMNYyASSZB5C4LsZD6FS/s5HVsmh+HMtvPNJNj00TO2/1NzcsiIyfwnWnss3JbnsTj9dXt2uR8Y40BlEm7YERk7xOP9zIetkd6e1ARFoyOh6bb/B7SFbTaPkeVhmbs2Z6TIXQ0AnYFHO9rNZFY+nXbVPBk+iUfocpZ/cry0bRP7wd3b54WqKTpzA8eSw7c3KQrK7Iv+syh7FO9apwh3w16mWsLd3j4/Mc49cL0nyaVFOeuNxltw2wKBjGrLcGtaUGCwVkUK4M6/byNIaHxP8tyLlSztz12BNPfqL98KXBAXytuaUQ6UmNtxl9Llj4Ib7iYfhbIuuU/lzEm0DV7DqZlJ0H66YupvL7J5QlzPPsYD7S2lFM93iifDLqL+U/XC2LshZ3TgUxMjaNqPL3LqTfaTjLAc76k7U5YUR5xrJLRFSU1sUgx+Hv0sWY6uOjad0JnsTpSYjxsf9B/pXhO+et3LrkbEJ3e4P+szTnSRDlDcsuEdEdpQBzclIXml+ETzfPJXGsMq0PoaETHKSuJ8GrWPDpf5shZ8uyEmULyy4R0R1lfc/JISpyrItEREREiRXdnBwiIiIiIiItDnKIiIiIiKiocJBDRERERERFhYMcIiIiIiIqKhzkEBERERFRUeEgh4iIiIiIigoHOUREREREVFQ4yCEiIiIioqKy0ewPLw0O5DMdRGSCdZGIiIgoNaaDHP7KOlHhGf2CLxERERHFGT0QZrgaEREREREVFQ5yiIiIiIioqHCQQ0RERERERYWDHCIiIiIiKioc5BARERERUVHhIIeIiIiIiIoKBzlERERERFRUOMghIiIiIqKiwkEOEREREREVFQ5yiIiIiIioqHCQQ0RERERERYWDHCIiIiIiKioc5BBRQTj8XejrboKj0AkhKrgGtA70oNVb6HRkR1brtrMJ3UWUN0SUPxvzchRvM/pclfrPIxNo6x3N0v63YWr4BIaCme+uGDn8XfDVCbrPo5On0DkULkCKsqEBrQP1sEWmMVVWg1pMY7jzJEKFTtZaluu6uIZ42nvgLmOZICDeVhRfOae1yg5/dyPvS0QFlONBjnRjwRzGWjowovyTswnd3u1wAClVfk97D9xYrzcqMT8w3oH+QCGOP4exlsH4dXA2odvXiL72yjWbnw5/F3xVFw1vEp52ZadFvKEc99sRWreDtlwqZF0sdLlf29Z3m1YgziZ0+3Zj1uKDLXVbQZQPYQx1gvclogLK4SDHDn93ghtL8CQ6+dalsIIncdreBV/dXngAdcd3rXM24ZAtiqlhuWyFMRSsR5+rHh6E19e55NydWRdHejtYDsigrSDKF96XiAopZ3NyHP5jqC2dwxifnK1pofnFQichLQ77bgjLFxFSds4DFxBBJfYxdluFdZHuZIZtBVG+8L5EVDA5epNjh6NKQHTy9RSfXMghNTJFeJVqLkE9+gbqoQu/UoiFgIxtR7evBvJslPgcFCledsng6bZujk+CdAGq0Ikr7h64bfrtPO2Kz1096HNBMw9CSk+pIh3aJ++x47wOeMVto79bhHDvpw3nIynnJJhxVGwDli8iovzQ2aTKMyyrY4rjIWRX4U6UL8rtVfOBtNvFw5neqZbyaXEB0W3lUhpq4BvogQ9R6Tyl8jUb1oRXjeKdSD3c1Q0A2KEXFbYuJi/3BscyeuOUpEwa0c7JMS23iuOZzuORjr+gCLlTnRuAiCocL16mxyqU5T8ar6sW8jGTurNgEB4o7m/RtN2M5VEAOO6rgaBMb5J2MNV2QT8/LKprx2Lt+MxeadtF/G55G+6V2slaXw/6fInmFmrbCpN2X0qL+hqK21bNSvs2mM+m2t6ofVakS3stzdKs3k6fJ9byTrxW5bpjGJy/bl/GZSzp9TSU/Lv6Mm5yzkqWr4X5PVkpWT1LXNeN0qP8Pu9LRIWSm0GO046qUmBhPoUYVKkTgclTaJMaZU97D9wDzUDLIEYCg2gLpBi/bqtHn3cawy0d4g3O24w+VyNavWH0B8IIzR5DrUGolqe6ElieFp/8JUtX7FsCan092DregbZeQL6ZuLubEOk8KYXOmMxNkDtwkQm0dcrnJW7b171d1+Gq8h7DbKADbYqOR5XdDgTDqn0esgGRcamDZ5Q/3mb46oTYNvJn6pu9eB6+7iZAlY7dOD6wBWdbOtAPxfmq8kUeuM1hrOWE+oYx0IUdmhtZubML+4Jy/omM5+RUYmtpFLNhffmKLEWBqtTnlxStAtfFhOUeAEpr4BvYgjG5HDmb0O2rR7d/Lt45s1wmLUhyvJGZObhdu+FwQvXk32HfDQFzeEdx/FpMY7jlpKJt6UEr1Odoc/Xg+OQptLUo8tHXDE8wWT5mUnek7+o6VQ1w11kZ8O7Gce9FnJbbzVg+WWkHrbQLcqcxiqnhjth5OPxd8Pl60LpLU07KnOiuDqKtZTD+meU5Odq2wrjdd1RsAwDYlHnmtKMq9l07/E6o5rM5/F3wubrgv6ROg7p9Vp6v4lpK8yG7/VANQhKWl3TyLpnYA734vjztzfG/W77uRqyUhQa4qy7G65HJOatZvRaJ78mq42nyM54HFup6sjwE70tEhZLfJaSlpSD7Yv81wyP9yeOugbA8jdOKBn+kdwIRVOKQ357mAecwpuwEBSYwtSzfyIBQ+CKiutfIDdhnAyJB8XuppCs6eUpxgwljKDgHlIodpkQ8bmmAo+rkjKJ/eBrR0hq4VekTgNnXFQ35KMYmoxDq6mN5CWg7ZbJKuJX5X30BbS2aJ5fOSiAyoT6PgEE6SoHZYeVNKIyhTk2+eOulTpr6ZjXSewpTywJq3Q2qfBCWgtZu0M7tKDf5U2h+ESjdonhySIbyXhfNRDGlLEfBkzgbAYQquzQwT6FMZuN4gQuIQBAfGsTIb8MmpDdZ9agtjWIqoGxbBjEWAWxOzbK5kQlVJ3ZkbNqgzTGQUd2R2h6bE35l2+PdCxuMHw6olAKzAfXg0XKZsNIuxObIqAcHoaETxnlYuoiz6YZaGrQV+nZfvL6RyBxQtj12bHWYWxhDneprERoKIgIBW3cp965tn6F44KQud6cN2u2k5SXVvEtCfpOvHNCP9CoGVJm0BVbKAkbRr3lQIZ7zNuwwvW9avRYW7sneZmmAo87PWB5YqOvJ8hDgfYmoUPI7yAmeRGdLB9paOtA2Pqf4g3pgETeH68uAUGaw5K0VkQuaJ0FhXFlC/EYmdXBUNwbvXthig4NU0mXQebh0A1GDhldNOsaM0YTwMGYVgzKZ9qm82U071ilTpHtMyv/hyShgq1f/9oD05HJqTJOW4FUsACivUNzUDGPc1fniqa40uAaA+DQ1Ctj2qm7w0aU53ZbmFnHF6AnupRuIprCXO1a+66IZg3IUWYrGOwSplMlsHM/ooYHqib5croO6Nwjq/Uifaeu1xXRnXHcMBmtm6dbT1q0UyoSFdiHRHJmRGYMHQ8s31OG0KdOcj9Suxq6B046q0jm8M3YDUcWxbWUCsHRVH7YYezAghmFpr6W2fRbPdxpjmgc44nxIdWc+WXlJOe+SEDvfNfC1Nxj8NcO2wEJZiPE2xx+4+GogJL1vwsK1SH5PFqM2zOdrWanrifNQeVwiyrfchKsFr2LBVyM1OBbCZKSnbYIcs6+1lOX0KajDU+JPjUfylS7pGAuWvxDF9Uuaj4JhzHpr4uEpmk6ZkdDQCdjae+B2NcMTkJ467doCQXrF3+czOnIq7NhRhpTyKKWQKrJmHdVFQ1ktk9aEwhdxvK5GfGgQiD/NFjtCUrkulefQaGVjIY9s1B1pHkCVHQ6EEZI7rOMW3ohoBxVZLhO2Mv3vdSWkHWhkTApZk/IG9t0QIkGMBOeww1sjhf5WavJLnluiDGuS5r2o9q1vn21lghQm2QN9EU6tBKecd8kEBtF2SQzZ1M0Jy8v9T55rp1jaXg6RM2X1WiQj1zOz8mWxrifKQyIqqBwtPKC9wSYhdcQK8jsagQuIuKQ5LZCeGgdG85cu+RgZkZepFJ/uRiyuJjQyNo1Dvhoc8tsxMhSWnjZFLf/2hBnxqXIYV5YaUZv+bpKQnoBq07lrC7LcDVjn1lFdNJKlMpkS1UMDSJ1d+Wm2VK6NFizJmuzUHbF+Sw9wdolvqLVvEyzJUpmQ3zZFlqJAWfr7SZ2+rQjNL8JXtxsOpx2oEhAJitcyNHsMtWWVsTf6cn552uths7DYhRHxfI1/6ytV1vNOfGNiqdMfW0JenjMjz/nKXVsglgU7/F6jUO3EMrkWasnqWQp13TQPpb/zvkRUEDkLVxsZE2Pmj1uK4RcbZG1YVn5I4SlVdnh0g4N8pCvBMaRJ44ahbFqxZSrFycX6EAMDsbjwY2LsfvAqFnTzEUwYhUVoJrlHlvRhNSIxnM44HMcCKYTDVMbhLcVl/dRFA6mUyayR57TshUcVvioyL9fZk5W6EwxjdllAlb0BfmelQfiqVSmUCQvtghjeYxxWlSx8KGVmbYUUzrfVLoWqSdc3NL8I2PbCX7EteR5791qaY5HofFOVat7pwsKka2FMnjMjh3Nl2BZYKAtGxPmkKbJ4LbSS1eXU67o2DxV4XyLKu9zNyQmeROf4HIS6RvQZxKrKq9mI5E5FPbo1HTFPe7OqgclFByMUvihOYtYNDqynyxqjm4Y0idpWr8mnBrRKK65Ze4o2incigM3pRLluwQFz8oRNcSKzPB+hUT1XB3b427UTWgXUepWfSelVxJ6Hhl7H1HIl3APqvPK0N1r+3Rbjm/ocri8bd3w91ZU5CG9Z5wpeFzPpLKVSJrNIemjgdukHB2KdqYS7W3N8b7MmjdYY5WM26o48f0eociYNX022H+vtYPJ2QZy4LaDW16VaGMHh7xIngQesPKCxOvg1ayvE9rK8ajcE5WAmcAERbENVlaB6uCTOwVC2Qw1odVmcnxaYEBeL8GnyytmE1lQX8rCcd/LcLeW8S+nNCZTfazZcnEIMucv0/pesLEhzZJVl39mE43WJhzgZXQsN83om/ttKXU+ch9L+eF8iKogchatJAoNoC4ivb41iWiPjJxQ3FzmutRF9A42xbaKTp9Cp+E5oKAj3QD3cAz1wZyv2VQ5PKTUYHFhMlzXxXz/uG6iP/z5H8CQ6g9KS0Yp8iiqW7bRCDj8TIsEU8mQUY5NO+Orq0eodRf/QCYSkJTKVcdiR8Q51A708jeHgFnWcuS7sIIyhzrC05GgP3MrvtlgMNQhMYMrZKM3JkFfBUcfUx/eTwryDO01B66JJubcoZLVMZpUY5mezGQ0ORtHfMicuY60s/8vTGE69UTDJxyzUHcW+bbE5RWmy2g5aahfEpcUj0rLH8blWqbTncrslpsf8d3LM2gp5PmZlLFRN3u87kXq4bepOamwOYyy9cxhrmQAszQMxuZaYw1hL6gNPq3kXn3cp15sopoZPYcqrDNHappnvpllpLJP7n4WyMNJ7Cju6G+P5sjyN4eFpHE8Qwp3ZtdAyuTaRCbQBsFbXk+Qh70tEBXPXY088+Yn2w5cGB/C15pZCpIcyYfm3IzJj/Ns1eWZ0rt5m9LlQVJM+WRcpMwl+oyjL1kS7YCRP7SKRoSK8LxGtRUb9pfwuIU05Ja4ClcV49rUseBJnI8rfC7FnOO+AqPg4/E7dnKI7jq6tIMoX3peIComDnGIh/+CclQUHisRI7wQitnr0tTfFfpX6dArhfUTFTVyEhB0sZVvBgQ7li533JaICy+2cHMq92O8MiHMU1sSyv3kziv4WxjkTqcm/I4IEc1XuNGwrKN/E+T5EVDgc5Kx3sfX58yc0dOKOeVtEtP4UpkPPdoGIiNYShqsREREREVFR4SCHiIiIiIiKiuEgZ3l5BZs3b853WoiIiIiIiCzbvHkzlpdXdJ8bDnLev3gR1dUP5jxRRERERERE6aqufhDvX7yo+9xwkBMKhXH44UM5TxQREREREVG6Dj98CKGQfjVDw0HOL355FqWbN+PII4dznjAiIiIiIqJUHXnkMEo3b8YvfnlW9zfThQe+//ev4iuNT3KgQ0REREREa8qRRw7jK41P4vt//6rh301/J+fSpQj+4q/68MxXnsZnD9ThzV+exczMu7h582bOEktERERERGRk8+bNqK5+EIcfPoTSzZvxF3/Vh0uXIobb3vXYE09+kmyH/+rhQ3A47NizezdKS0uynmAiIiIiIqJElpdX8P7FiwiFwoYhakqWBjlERERERETrBX8MlIiIiIiIisr/B66Ncuymyc8BAAAAAElFTkSuQmCC;" vertex="1" parent="WIyWlLk6GJQsqaUBKTNV-1">
          <mxGeometry x="820" y="880" width="777.03" height="162" as="geometry" />
        </mxCell>
        <mxCell id="yhk8o4lR-U0t_7d8vfAA-18" value="Money" style="text;html=1;strokeColor=none;fillColor=none;align=center;verticalAlign=middle;whiteSpace=wrap;rounded=0;fontStyle=1;fontSize=42;" vertex="1" parent="WIyWlLk6GJQsqaUBKTNV-1">
          <mxGeometry x="-10" y="-40" width="760" height="140" as="geometry" />
        </mxCell>
        <mxCell id="yhk8o4lR-U0t_7d8vfAA-19" value="Product" style="text;html=1;strokeColor=none;fillColor=none;align=center;verticalAlign=middle;whiteSpace=wrap;rounded=0;fontStyle=1;fontSize=42;" vertex="1" parent="WIyWlLk6GJQsqaUBKTNV-1">
          <mxGeometry x="828.51" y="-40" width="760" height="140" as="geometry" />
        </mxCell>
        <mxCell id="yhk8o4lR-U0t_7d8vfAA-20" value="Warehouse" style="text;html=1;strokeColor=none;fillColor=none;align=center;verticalAlign=middle;whiteSpace=wrap;rounded=0;fontStyle=1;fontSize=42;" vertex="1" parent="WIyWlLk6GJQsqaUBKTNV-1">
          <mxGeometry x="820" y="330" width="760" height="140" as="geometry" />
        </mxCell>
        <mxCell id="yhk8o4lR-U0t_7d8vfAA-22" value="Reporting" style="text;html=1;strokeColor=none;fillColor=none;align=center;verticalAlign=middle;whiteSpace=wrap;rounded=0;fontStyle=1;fontSize=42;" vertex="1" parent="WIyWlLk6GJQsqaUBKTNV-1">
          <mxGeometry x="825" y="790" width="760" height="140" as="geometry" />
        </mxCell>
        <mxCell id="yhk8o4lR-U0t_7d8vfAA-27" value="" style="endArrow=classic;startArrow=classic;html=1;rounded=0;fontSize=42;exitX=0.5;exitY=0;exitDx=0;exitDy=0;" edge="1" parent="WIyWlLk6GJQsqaUBKTNV-1" source="yhk8o4lR-U0t_7d8vfAA-20">
          <mxGeometry width="50" height="50" relative="1" as="geometry">
            <mxPoint x="630" y="510" as="sourcePoint" />
            <mxPoint x="1200" y="220" as="targetPoint" />
          </mxGeometry>
        </mxCell>
        <mxCell id="yhk8o4lR-U0t_7d8vfAA-28" value="" style="endArrow=classic;startArrow=classic;html=1;rounded=0;fontSize=42;exitX=0.5;exitY=0;exitDx=0;exitDy=0;" edge="1" parent="WIyWlLk6GJQsqaUBKTNV-1" source="yhk8o4lR-U0t_7d8vfAA-22">
          <mxGeometry width="50" height="50" relative="1" as="geometry">
            <mxPoint x="630" y="510" as="sourcePoint" />
            <mxPoint x="1200" y="680" as="targetPoint" />
          </mxGeometry>
        </mxCell>
      </root>
    </mxGraphModel>
  </diagram>
</mxfile>
